<svg width="23" height="15" viewBox="0 0 23 15" fill="none" xmlns="http://www.w3.org/2000/svg">
<path d="M2.08814 2.57874e-05C1.47774 2.57874e-05 0.928304 0.153384 0.544388 0.536276C0.160472 0.919167 0 1.47371 0 2.08003V11.96C0 12.5663 0.158439 13.1138 0.544388 13.4956C0.930337 13.8775 1.48892 14.04 2.10439 14.04H20.2883C20.8905 14.04 21.443 13.8735 21.8239 13.4875C22.2047 13.1006 22.3601 12.5511 22.3601 11.9356V2.05564C22.3601 1.45844 22.2027 0.915096 21.8239 0.53625C21.4451 0.158444 20.9017 0 20.3045 0L2.08814 2.57874e-05ZM1.04814 1.91753L7.2962 6.98753L1.06426 12.2931C1.03887 8.68143 1.03988 5.20497 1.04801 1.91753H1.04814ZM21.312 1.91753C21.3201 5.46523 21.3201 9.10523 21.2876 12.2931L15.0638 6.98753L21.312 1.91753ZM8.12508 7.65365C8.80149 8.19803 9.48906 8.77185 10.1645 9.30303C10.8084 9.62499 11.5518 9.62499 12.1957 9.30303C12.8762 8.77084 13.5587 8.2031 14.2351 7.65365L20.4995 12.9917C14.3001 13.0049 7.47224 12.9917 1.86066 12.9836L8.12508 7.65365Z" fill="#56C25C"/>
</svg>
