<svg width="289" height="185" viewBox="0 0 289 185" fill="none" xmlns="http://www.w3.org/2000/svg">
<path opacity="0.47" d="M13.2789 65.1461C14.5103 53.2656 20.5011 41.3655 30.9092 32.8752C47.1126 19.6366 71.6523 16.3343 93.1721 19.4217C102.183 20.7211 111.125 22.9976 120.35 22.2941C133.808 21.2683 145.652 14.1263 157.888 8.89921C174.561 1.78652 193.666 -2.02384 211.404 1.10261C231.517 4.64919 248.013 17.9757 250.007 35.6304C250.906 43.6322 241.876 57.711 244.749 65.2927C247.662 72.9818 268.859 96.5572 268.36 114.476C267.852 133.039 257.431 153.814 220.716 174.407C184 195 62.3066 179.431 40.0003 160C17.694 140.569 23.2863 130.684 28.5441 118.022C32.5412 108.389 21.625 100.426 17.4031 91.4474C13.6308 83.4554 12.3798 73.8513 13.2789 65.1461Z" fill="#C2ECE0"/>
<path fill-rule="evenodd" clip-rule="evenodd" d="M174.003 86.8129C174.003 86.8129 182.066 85.4157 184.961 76.7806C187.855 68.1455 191.121 60.3239 199.068 59.9315C207.014 59.5391 215.04 60.8043 217.32 56.5282C219.599 52.252 231.601 46.665 237.389 56.3692C243.176 66.0734 240.103 71.0515 247.246 71.1986C254.388 71.3458 254.494 64.4783 261.506 68.9303C268.517 73.3824 260.84 77.6855 271.226 79.6663C281.612 81.647 285.956 82.2678 288.687 83.7987C291.418 85.3295 276.231 83.5821 244.803 85.6373C213.375 87.6925 174 86.8129 174 86.8129" fill="#FFCA00" fill-opacity="0.3"/>
<path fill-rule="evenodd" clip-rule="evenodd" d="M13.0034 157.813C13.0034 157.813 21.0665 156.416 23.961 147.781C26.8554 139.145 30.1208 131.324 38.0676 130.931C46.0143 130.539 54.0403 131.804 56.3195 127.528C58.5987 123.252 70.6015 117.665 76.3887 127.369C82.176 137.073 79.1029 142.051 86.2455 142.199C93.3882 142.346 93.4944 135.478 100.506 139.93C107.517 144.382 99.8396 148.686 110.226 150.666C120.612 152.647 124.956 153.268 127.687 154.799C130.418 156.329 115.231 154.582 83.8028 156.637C52.3748 158.693 13 157.813 13 157.813" fill="#FFCA00" fill-opacity="0.3"/>
<mask id="mask0" mask-type="alpha" maskUnits="userSpaceOnUse" x="0" y="0" width="256" height="185">
<path d="M0.278458 65.1461C1.50984 53.2656 7.50061 41.3655 17.9087 32.8752C34.1121 19.6366 58.6518 16.3343 80.1716 19.4217C89.1822 20.7211 98.1244 22.9976 107.35 22.2941C120.807 21.2683 132.652 14.1263 144.888 8.89921C161.56 1.78652 180.666 -2.02384 198.404 1.10261C218.516 4.64919 235.013 17.9757 237.007 35.6304C237.906 43.6322 228.876 57.711 231.749 65.2927C234.661 72.9818 255.858 96.5572 255.36 114.476C254.852 133.039 244.43 153.814 207.715 174.407C171 195 49.3061 179.431 26.9998 160C4.69348 140.569 10.2859 130.684 15.5437 118.022C19.5408 108.389 8.62448 100.426 4.4026 91.4474C0.630277 83.4554 -0.620646 73.8513 0.278458 65.1461Z" fill="#D4E9E3"/>
</mask>
<g mask="url(#mask0)">
<path fill-rule="evenodd" clip-rule="evenodd" d="M109.5 170.5L108 187.5C108 187.5 171.132 210.808 181.5 184.5C183.453 179.544 179.665 163.664 178 155.5C183.898 153.706 114.448 169.672 114.448 169.672L109.5 170.5Z" fill="#FFD101"/>
<path d="M156.889 24.1737C160.954 26.2354 164.149 29.1393 165.659 33.6694C167.256 38.4318 167.43 43.9783 170.45 48.1599C173.499 52.3706 178.378 54.3743 183.024 55.9715C186.973 57.3363 191.097 58.7302 194.088 61.7502C196.731 64.4218 198.27 68.7487 196.556 72.3495C195.104 75.4276 191.416 76.9958 190.865 80.5676C190.545 82.7745 191.678 84.9815 193.246 86.4915C196.121 89.2212 200.099 89.9762 203.671 91.283C206.517 92.3284 209.363 93.8675 211.018 96.481C212.586 98.9493 212.876 102.115 212.325 105.018C211.628 108.677 209.827 112.133 207.795 115.153C203.468 121.571 198.037 127.524 190.981 131.357C183.924 135.161 175.067 136.584 167.43 133.883C158.544 130.718 152.678 122.529 150.326 113.992C147.974 105.454 148.555 96.51 149.019 87.7112C149.513 78.9123 149.832 69.9102 147.016 61.5179C144.054 52.69 137.81 45.1108 133.861 36.6314C132.264 33.2048 128.895 29.0813 129.97 25.0158C131.364 19.7597 139.204 19.6726 143.357 20.2243C147.945 20.8051 152.678 22.0248 156.889 24.1737Z" fill="#5D95E4"/>
<path d="M91.0863 126.217C86.5853 133.186 80.5451 140.853 82.3165 149.855C83.5361 156.011 87.4855 161.209 91.7832 165.681C96.5457 170.647 101.86 174.945 107.377 178.952C108.248 174.625 107.581 169.979 105.432 166.146C103.515 162.748 100.524 159.902 99.5948 156.098C98.6365 152.062 100.292 147.88 101.976 144.076C102.963 141.84 104.009 139.575 105.054 137.368C106.884 133.506 108.8 129.702 110.775 125.927C110.833 125.549 110.92 125.172 110.978 124.794C107.232 121.716 102.615 119.48 99.3624 115.705C99.1592 115.473 98.9559 115.24 98.7526 115.008C96.052 118.609 93.5256 122.384 91.0863 126.217Z" fill="#5CCB9D"/>
<path d="M92.5964 89.3083C92.335 89.7439 92.4512 90.2956 92.5673 90.7893C93.4676 94.274 94.6291 97.6425 96.0811 100.924C99.2463 102.434 104.212 105.28 104.822 105.832C104.996 105.977 105.286 106.238 105.664 106.557C108.074 108.561 113.998 113.091 113.969 108.881C113.969 108.097 113.592 107.4 113.243 106.732C112.633 105.657 112.053 104.176 112.866 103.276C112.953 103.189 113.011 103.131 113.098 103.073C112.691 102.115 112.314 101.156 111.936 100.198C111.356 98.6589 110.804 97.1198 110.31 95.5807C109.381 92.6478 108.684 88.6404 105.083 88.35C103.138 88.2048 101.192 88.4952 99.2463 88.4952C97.4169 88.4952 95.6745 88.4661 93.8451 88.7275C93.3804 88.7856 92.8577 88.9017 92.5964 89.3083Z" fill="#FFD101"/>
<path d="M96.0522 100.924C94.5421 100.198 93.4387 99.7914 93.4387 100.053C93.1192 105.483 95.3843 110.797 98.7818 114.979C98.9851 115.211 99.1594 115.444 99.3917 115.676C102.644 119.451 107.29 121.687 111.007 124.765C112.227 125.752 113.33 126.827 114.289 128.105C114.695 128.627 115.102 129.179 115.508 129.731C117.715 125.985 120.59 122.732 124.249 120.787C123.581 120.003 123 119.161 122.565 118.086C121.636 115.734 120.416 113.498 119.487 111.175C118.499 108.794 118.093 106.529 116.467 104.409C116.031 103.828 115.537 103.276 114.869 102.986C114.318 102.753 113.621 102.724 113.127 103.073C113.04 103.131 112.953 103.189 112.895 103.276C112.082 104.176 112.663 105.628 113.272 106.732C113.621 107.4 113.998 108.097 113.998 108.881C114.027 113.091 108.132 108.561 105.693 106.558C105.316 106.238 105.025 105.977 104.851 105.832C104.183 105.28 99.2174 102.434 96.0522 100.924Z" fill="#FFA87B"/>
<path d="M102.005 144.076C100.321 147.88 98.6656 152.033 99.6239 156.098C100.524 159.902 103.544 162.748 105.461 166.146C107.61 169.979 108.278 174.625 107.406 178.952C108.161 179.504 108.916 180.026 109.671 180.578C109.759 179.939 109.817 179.3 109.933 178.662C110.31 176.019 111.617 173.696 112.053 170.966C112.517 167.946 112.633 164.897 112.546 161.848C111.675 160.164 110.775 158.479 109.904 156.795C108.945 154.937 107.958 153.02 107.697 150.929C107.261 147.59 108.713 144.424 110.455 141.491C108.8 140.01 107.058 138.646 105.199 137.426L105.112 137.397C104.038 139.575 102.992 141.811 102.005 144.076Z" fill="#FFD101"/>
<path d="M105.083 137.368L104.212 139.633C106.07 140.853 108.219 139.894 109.875 141.375C109.904 141.317 112.749 141.869 112.778 141.811C112.633 140.214 113.127 138.152 113.069 136.584C112.924 133.012 110.194 129.411 110.804 125.927C108.829 129.702 106.913 133.506 105.083 137.368Z" fill="#FFD101"/>
<path d="M186.044 205C185.347 202.532 184.592 200.092 184.099 197.624C182.414 189.116 182.356 180.317 182.937 171.663C182.966 171.373 182.966 171.111 182.995 170.821C181.369 173.289 179.598 175.641 177.739 177.936C173.616 182.988 168.156 187.896 161.797 187.577C160.984 187.547 160.199 187.402 159.415 187.228C156.076 185.399 152.736 183.54 149.513 181.536C144.78 178.603 140.221 175.351 136.155 171.46C126.717 162.429 120.155 150.232 110.572 141.608C111.182 148.054 112.256 154.53 112.517 160.861C112.517 161.18 112.546 161.499 112.546 161.819C112.633 164.839 112.517 167.917 112.053 170.937C111.617 173.667 110.339 175.99 109.933 178.632C109.817 179.271 109.73 179.91 109.671 180.549C108.829 187.373 108.887 194.517 108.858 201.341C108.858 202.532 108.887 203.751 108.946 204.971H186.044V205Z" fill="#5CCB9D"/>
<path d="M110.804 125.927C110.194 129.411 110.078 132.954 110.223 136.526L113.65 137.891C114.492 135.597 114.579 132.17 115.828 130.05C115.421 129.498 114.695 128.627 114.289 128.105C113.33 126.856 112.227 125.781 111.007 124.765C110.92 125.143 110.862 125.52 110.804 125.927Z" fill="#FFD101"/>
<path d="M149.513 181.536C152.736 183.54 156.076 185.399 159.415 187.228C160.199 187.402 160.983 187.519 161.796 187.577C168.185 187.896 173.615 182.988 177.739 177.936C179.597 175.671 181.34 173.289 182.995 170.821C184.185 154.85 189.093 138.965 190.719 123.11C189.354 129.092 187.264 134.871 185.202 140.62C182.24 148.838 179.278 157.057 175.619 164.926C172.744 171.082 168.621 177.819 161.245 177.732C157.934 177.703 155.582 177.152 153.114 174.916C150.413 172.447 147.887 169.747 145.505 166.959C140.888 161.558 136.736 155.779 132.438 150.116C131.915 149.448 131.421 148.809 130.899 148.142C127.182 143.408 123.232 138.878 119.341 134.261C118.557 133.332 117.657 132.635 116.931 131.647C116.466 131.008 116.002 130.37 115.537 129.731C114.288 131.851 113.243 134.145 112.401 136.439L110.252 136.526C110.31 138.094 110.426 139.691 110.571 141.259C110.571 141.375 110.6 141.492 110.6 141.608C120.183 150.232 126.746 162.429 136.184 171.46C140.22 175.351 144.779 178.604 149.513 181.536Z" fill="#FFD101"/>
<path d="M148.032 137.426C152.068 141.462 155.611 145.993 158.573 150.9C160.315 139.197 163.481 127.959 166.704 116.634C163.916 118.899 161.477 121.6 159.473 124.62C157.353 127.785 155.698 131.357 152.969 133.97C151.429 135.422 149.426 136.526 147.422 136.845C147.625 137.019 147.829 137.223 148.032 137.426ZM190.69 123.081C189.325 129.063 187.235 134.842 185.173 140.591C182.211 148.809 179.249 157.027 175.59 164.897C172.715 171.053 168.592 177.79 161.216 177.703C157.905 177.674 155.553 177.122 153.085 174.886C150.384 172.418 147.858 169.718 145.476 166.93C140.859 161.528 136.707 155.75 132.409 150.087C131.886 149.419 131.392 148.78 130.87 148.112C127.153 143.379 123.203 138.849 119.312 134.232C118.528 133.302 117.628 132.606 116.902 131.618C116.437 130.979 115.973 130.341 115.508 129.702C117.715 125.956 120.59 122.703 124.249 120.758C123.581 119.974 123 119.131 122.565 118.057C121.635 115.705 120.416 113.469 119.486 111.146C118.499 108.764 118.093 106.499 116.466 104.38C116.031 103.799 115.537 103.247 114.869 102.957C114.317 102.724 113.621 102.695 113.127 103.044C112.72 102.085 112.343 101.127 111.965 100.169C120.212 92.6478 130.057 86.8109 140.772 84.7782C140.83 85.6494 140.859 86.5205 140.888 87.3917C141.092 92.8801 141.092 98.3685 140.83 103.857C140.743 105.977 140.598 108.126 140.453 110.245C147.219 110.304 154.043 107.98 159.154 103.712C163.945 99.7333 167.227 94.1288 168.359 88.1758C169.318 88.379 170.276 88.5823 171.205 88.8146C178.436 90.6151 185.289 94.8548 189.325 101.301C193.101 107.283 192.578 113.411 191.3 120.177C191.126 121.164 190.923 122.122 190.69 123.081Z" fill="#5CCB9D"/>
<path d="M155.698 43.6589C157.121 45.4013 158.225 47.434 158.922 49.6119C159.154 50.3379 159.357 51.122 159.561 51.906C160.577 45.4303 160.257 38.6061 157.441 32.595C156.599 30.7946 155.524 29.1394 154.275 27.6874C151.952 24.9287 148.961 22.8379 145.506 21.6764C143.008 20.8342 141.324 20.0502 138.623 20.2825C135.487 20.5438 132.409 21.4731 129.563 22.8089C122.303 26.2064 117.222 32.8274 117.425 41.4229C117.541 46.2144 119.487 50.8897 122.681 54.3744C121.403 50.396 120.445 46.3015 119.893 42.1489C120.155 41.5972 120.503 41.0745 120.88 40.6098C122.361 38.8384 124.452 37.764 126.543 36.8928C128.663 36.0217 130.957 35.3538 133.251 35.4409C135.545 35.499 137.897 36.3701 139.436 38.1415C140.888 39.8258 141.44 42.0908 142.224 44.1816C143.008 46.2434 143.996 48.2181 145.244 50.0475C145.477 50.396 145.738 50.7445 146.115 50.8606C146.783 51.0349 147.364 50.3379 147.48 49.67C147.596 48.9731 147.393 48.3052 147.335 47.6082C147.19 45.6917 148.264 43.7461 149.92 42.9039C151.459 42.1199 154.334 42.3522 155.553 43.717L155.698 43.6589Z" fill="#5D95E4"/>
<path d="M155.03 54.0839C155.379 52.8062 155.843 51.6156 156.076 50.1346C156.366 48.3632 156.889 45.227 155.582 43.746C154.333 42.3812 151.487 42.1488 149.948 42.9329C148.293 43.746 147.219 45.7206 147.364 47.6372C147.422 48.3342 147.625 49.0021 147.509 49.699C147.393 50.3669 146.783 51.0638 146.144 50.8896C145.767 50.7734 145.476 50.425 145.273 50.0765C144.053 48.247 143.037 46.2724 142.253 44.2106C141.469 42.1198 140.917 39.8548 139.465 38.1705C137.926 36.3991 135.603 35.5279 133.28 35.4699C130.986 35.4118 128.721 36.0506 126.572 36.9218C124.452 37.7639 122.39 38.8674 120.909 40.6388C120.532 41.1034 120.183 41.6261 119.922 42.1779C119 43.5 121.403 50.425 122.71 54.4033C124.539 60.066 127.095 65.4672 130.289 70.4329C131.799 72.7851 133.483 75.0501 135.719 76.6473C137.084 77.6346 138.71 78.3315 140.336 78.5638C141.382 78.709 142.427 78.651 143.444 78.3606C146.231 77.5765 148.264 75.1663 149.803 72.6689C152.707 67.9355 154.391 62.3891 154.624 56.8136C154.624 55.7972 154.798 54.926 155.03 54.0839Z" fill="#FFA87B"/>
<path d="M140.424 110.275C147.19 110.333 154.014 108.009 159.125 103.741C163.916 99.7624 167.198 94.1578 168.33 88.2048C166.646 87.8273 164.991 87.3917 163.481 86.5787C162.958 86.2883 162.464 85.9688 162.058 85.6204C161.042 90.528 158.515 95.0581 154.856 98.3395C150.994 101.795 145.912 103.77 140.83 103.915C140.714 106.006 140.598 108.126 140.424 110.275Z" fill="#FFD101"/>
<path d="M140.743 84.8073C140.801 85.6785 140.83 86.5497 140.859 87.4208C148.322 83.2392 154.363 72.0011 156.366 64.3928C156.366 64.3928 156.366 64.3928 156.366 64.3638C155.785 60.6468 155.263 56.9008 155.03 54.0549C154.798 54.868 154.624 55.7392 154.595 56.7265C154.392 62.3311 152.707 67.8775 149.774 72.5819C148.235 75.0792 146.174 77.4895 143.415 78.2735C142.398 78.5639 141.353 78.622 140.308 78.4768C140.482 80.6257 140.627 82.7165 140.743 84.8073Z" fill="#D97B4B"/>
<path d="M140.859 87.4208C141.063 92.9092 141.063 98.3976 140.801 103.886C145.912 103.741 150.965 101.766 154.827 98.3105C158.486 95.0581 161.042 90.499 162.029 85.5914C159.241 83.2682 158.544 79.4641 158.08 75.8342C157.76 73.1626 157.005 68.8068 156.337 64.4219C154.363 72.0011 148.322 83.2682 140.859 87.4208Z" fill="#FFA87B"/>
<path d="M147.393 136.816C147.596 137.019 147.8 137.223 148.032 137.426C152.068 141.462 155.611 145.993 158.573 150.9C160.315 139.197 163.481 127.959 166.704 116.634C163.916 118.899 161.477 121.6 159.473 124.62C157.353 127.785 155.698 131.357 152.969 133.97C151.429 135.393 149.426 136.497 147.393 136.816Z" fill="#FFD101"/>
<path d="M155.03 54.084C155.234 56.9298 155.785 60.6758 156.366 64.3928C156.366 64.3928 156.366 64.3928 156.366 64.4219C156.395 64.3057 156.424 64.1605 156.453 64.0444C157.382 60.3274 158.689 56.7265 159.357 52.9224C159.415 52.5739 159.473 52.2255 159.531 51.877C159.328 51.0929 159.154 50.3379 158.892 49.5829C158.196 47.405 157.092 45.3722 155.669 43.6299L155.553 43.746C156.86 45.198 156.337 48.3633 156.047 50.1346C155.814 51.6447 155.35 52.8353 155.03 54.084Z" fill="#D97B4B"/>
<path d="M133.716 71.3621C133.629 71.3621 133.542 71.3331 133.484 71.3041C133.28 71.1879 133.193 70.8975 133.309 70.6652C134.761 68.1969 137.026 66.8901 141.121 66.1641C141.382 66.1061 141.615 66.2803 141.644 66.5417C141.702 66.803 141.527 67.0353 141.266 67.0644C137.404 67.7613 135.4 68.8938 134.093 71.1298C134.035 71.3041 133.89 71.3621 133.716 71.3621Z" fill="#D97B4B"/>
</g>
</svg>
