<svg width="147" height="123" viewBox="0 0 147 123" fill="none" xmlns="http://www.w3.org/2000/svg">
<path d="M48.0357 21.9009V18.3418C47.9491 15.4822 48.9876 12.7027 50.9282 10.6005C52.8688 8.49837 55.5565 7.24132 58.4139 7.09946C61.2713 6.9576 64.0704 7.94226 66.2096 9.84187C68.3489 11.7415 69.6576 14.4044 69.8547 17.2586C70.0459 13.6561 71.2946 10.1898 73.4447 7.29305C71.1372 4.25931 67.9353 2.02672 64.2908 0.910295C60.6464 -0.206131 56.7434 -0.150029 53.1325 1.07068C49.5217 2.2914 46.3853 4.61509 44.1659 7.7139C41.9465 10.8127 40.7561 14.5302 40.7627 18.3418V21.9009H48.0357Z" fill="#FFDC73"/>
<path d="M77.0349 18.2496C77.1839 15.4487 78.4016 12.8116 80.4369 10.8816C82.4723 8.95163 85.1704 7.87582 87.9753 7.87582C90.7802 7.87582 93.4783 8.95163 95.5137 10.8816C97.5491 12.8116 98.7667 15.4487 98.9157 18.2496V21.9016H106.189V18.2496C106.2 14.4276 105.007 10.6991 102.779 7.59305C100.552 4.48703 97.4033 2.16115 93.7798 0.945307C90.1562 -0.270534 86.2418 -0.314606 82.5918 0.819343C78.9418 1.95329 75.7415 4.20769 73.4448 7.26278C75.781 10.4258 77.0395 14.2555 77.0349 18.1877V18.2496Z" fill="#74BFF9"/>
<path d="M77.0656 21.9326V18.1259C77.0611 14.2092 75.791 10.3988 73.4446 7.26282C71.1092 10.4027 69.85 14.2127 69.8545 18.1259V21.9326H77.0656Z" fill="#3ACA96"/>
<path d="M55.2778 66.5612V52.2009C53.1545 52.9612 51.3186 54.3599 50.0219 56.2051C48.7253 58.0504 48.0315 60.2516 48.0357 62.5069V66.066H40.7318V62.5069C40.7423 58.314 42.193 54.252 44.8411 51.0011C47.4891 47.7502 51.1737 45.5078 55.2778 44.6494V25.6158C55.2696 25.1337 55.357 24.6546 55.5349 24.2064C55.7128 23.7582 55.9777 23.3497 56.3144 23.0044C56.651 22.6591 57.0527 22.3839 57.4963 22.1947C57.9399 22.0055 58.4165 21.906 58.8988 21.902H48.0357V32.9198C48.0824 33.4255 48.0231 33.9354 47.8616 34.417C47.7001 34.8985 47.4399 35.3411 47.0977 35.7163C46.7555 36.0916 46.3387 36.3914 45.8741 36.5965C45.4094 36.8016 44.9071 36.9076 44.3992 36.9076C43.8913 36.9076 43.389 36.8016 42.9244 36.5965C42.4597 36.3914 42.043 36.0916 41.7008 35.7163C41.3585 35.3411 41.0984 34.8985 40.9368 34.417C40.7753 33.9354 40.716 33.4255 40.7627 32.9198V21.902H29.6521C29.1684 21.906 28.6903 22.0053 28.245 22.1941C27.7998 22.383 27.396 22.6577 27.0569 23.0025C26.7178 23.3474 26.4499 23.7557 26.2686 24.2041C26.0873 24.6525 25.996 25.1322 26.0001 25.6158V66.5612C26.0001 74.7626 32.5303 81.4476 40.577 81.4476H69.8547C61.808 81.4476 55.2778 74.7626 55.2778 66.5612Z" fill="#FFDC73"/>
<path opacity="0.7" d="M55.2774 44.4018V25.6158C55.2692 25.1337 55.3566 24.6546 55.5345 24.2064C55.7124 23.7582 55.9773 23.3497 56.314 23.0044C56.6506 22.6591 57.0524 22.3839 57.4959 22.1947C57.9395 22.0055 58.4162 21.906 58.8984 21.902H58.8674C58.3838 21.906 57.9057 22.0053 57.4604 22.1941C57.0151 22.383 56.6114 22.6577 56.2722 23.0025C55.9331 23.3474 55.6653 23.7557 55.4839 24.2041C55.3026 24.6525 55.2114 25.1322 55.2155 25.6158V44.4018H55.2774Z" fill="#74BFF9"/>
<path d="M58.9293 44.2471C61.7288 44.2494 64.4898 44.8986 66.9969 46.1441C69.5041 47.3897 71.6894 49.1977 73.3824 51.4272H73.4134C75.1064 49.1879 77.2953 47.3713 79.8083 46.1202C82.3214 44.869 85.0902 44.2173 87.8975 44.2161C89.1448 44.214 90.3891 44.3385 91.6113 44.5875V25.6158C91.6154 25.1322 91.5242 24.6525 91.3429 24.2041C91.1615 23.7557 90.8937 23.3474 90.5545 23.0025C90.2154 22.6577 89.8117 22.383 89.3664 22.1941C88.9211 22.0053 88.443 21.906 87.9594 21.902H77.0344V32.6722C77.0344 33.6325 76.6529 34.5536 75.9738 35.2326C75.2948 35.9117 74.3737 36.2932 73.4134 36.2932C72.453 36.2932 71.532 35.9117 70.8529 35.2326C70.1739 34.5536 69.7924 33.6325 69.7924 32.6722V21.902H58.8674C58.3838 21.906 57.9057 22.0053 57.4604 22.1941C57.0151 22.383 56.6114 22.6577 56.2722 23.0025C55.9331 23.3474 55.6653 23.7557 55.4839 24.2041C55.3026 24.6525 55.2114 25.1322 55.2155 25.6158V44.6494C56.4366 44.39 57.6809 44.2552 58.9293 44.2471V44.2471Z" fill="#3ACA96"/>
<path d="M87.8981 51.52C85.0846 51.5255 82.3817 52.6161 80.3523 54.5647C78.323 56.5134 77.1236 59.1698 77.0041 61.9807V66.0969H69.793V62.2902C69.7827 61.7942 69.8033 61.2981 69.8549 60.8047C69.819 60.9988 69.7983 61.1954 69.793 61.3927C69.5177 58.7002 68.2556 56.2048 66.2498 54.3876C64.244 52.5703 61.6365 51.5599 58.9299 51.551C57.6632 51.5449 56.4055 51.765 55.2161 52.2009V66.5612C55.2161 74.7626 61.7772 81.4476 69.793 81.4476H77.035C85.0508 81.4476 91.6119 74.7626 91.6119 66.5612V52.139C90.4169 51.7281 89.1618 51.5189 87.8981 51.52Z" fill="#3ACA96"/>
<path d="M117.114 21.9333H106.127V32.8583C106.174 33.364 106.114 33.874 105.953 34.3555C105.791 34.837 105.531 35.2796 105.189 35.6549C104.847 36.0302 104.43 36.3299 103.965 36.535C103.501 36.7402 102.998 36.8461 102.491 36.8461C101.983 36.8461 101.48 36.7402 101.016 36.535C100.551 36.3299 100.134 36.0302 99.7921 35.6549C99.4498 35.2796 99.1897 34.837 99.0281 34.3555C98.8666 33.874 98.8073 33.364 98.854 32.8583V21.9333H87.9291C88.4127 21.9374 88.8909 22.0367 89.3361 22.2255C89.7814 22.4143 90.1852 22.689 90.5243 23.0339C90.8634 23.3788 91.1313 23.7871 91.3126 24.2354C91.4939 24.6838 91.5851 25.1636 91.5811 25.6472V44.4022C95.6826 45.2542 99.3665 47.4906 102.015 50.7363C104.663 53.982 106.115 58.0397 106.127 62.2288V65.8807H98.8231V62.2288C98.8209 59.9788 98.1241 57.7844 96.8279 55.9453C95.5317 54.1062 93.6993 52.7122 91.5811 51.9537V66.5926C91.5811 74.794 85.0508 81.479 77.0042 81.479H106.189C114.236 81.479 120.766 74.794 120.766 66.5926V25.6472C120.77 25.1636 120.679 24.6838 120.497 24.2354C120.316 23.7871 120.048 23.3788 119.709 23.0339C119.37 22.689 118.966 22.4143 118.521 22.2255C118.076 22.0367 117.598 21.9374 117.114 21.9333Z" fill="#74BFF9"/>
<path d="M2.97747 102.854L3.06849 104.32C4.05665 103.169 5.40886 102.594 7.12513 102.594C9.0061 102.594 10.2933 103.312 10.9867 104.748C12.0096 103.312 13.4485 102.594 15.3034 102.594C16.855 102.594 18.0079 103.022 18.762 103.879C19.5248 104.735 19.9148 105.999 19.9322 107.668V116.895H16.7727V107.759C16.7727 106.868 16.5776 106.215 16.1876 105.8C15.7975 105.384 15.1517 105.177 14.2503 105.177C13.5308 105.177 12.9414 105.371 12.482 105.761C12.0312 106.141 11.7149 106.643 11.5328 107.266L11.5458 116.895H8.38633V107.655C8.34299 106.003 7.49786 105.177 5.85093 105.177C4.5854 105.177 3.68825 105.691 3.1595 106.721V116.895H0V102.854H2.97747Z" fill="#2B5A85"/>
<path d="M29.3717 117.155C27.3694 117.155 25.7441 116.528 24.4959 115.273C23.2564 114.01 22.6366 112.332 22.6366 110.238V109.849C22.6366 108.447 22.9053 107.197 23.4427 106.098C23.9888 104.991 24.7516 104.13 25.7311 103.515C26.7106 102.901 27.8028 102.594 29.0076 102.594C30.9233 102.594 32.4012 103.204 33.4413 104.424C34.4902 105.644 35.0146 107.37 35.0146 109.602V110.874H25.8221C25.9175 112.033 26.3032 112.95 26.9793 113.625C27.6641 114.3 28.5222 114.637 29.5537 114.637C31.0013 114.637 32.1801 114.053 33.0903 112.885L34.7935 114.508C34.2301 115.347 33.476 116 32.5312 116.467C31.595 116.926 30.5419 117.155 29.3717 117.155ZM28.9946 105.125C28.1278 105.125 27.4257 105.428 26.8883 106.033C26.3595 106.639 26.0215 107.482 25.8741 108.564H31.8941V108.33C31.8247 107.275 31.543 106.479 31.0489 105.942C30.5549 105.397 29.8701 105.125 28.9946 105.125Z" fill="#2B5A85"/>
<path d="M45.3642 113.08C45.3642 112.518 45.1302 112.089 44.6621 111.795C44.2027 111.501 43.4356 111.242 42.3607 111.017C41.2859 110.792 40.3888 110.506 39.6693 110.16C38.0917 109.399 37.3029 108.296 37.3029 106.851C37.3029 105.64 37.8144 104.627 38.8372 103.814C39.86 103.001 41.1602 102.594 42.7378 102.594C44.4194 102.594 45.776 103.009 46.8074 103.84C47.8476 104.671 48.3677 105.748 48.3677 107.071H45.2082C45.2082 106.466 44.9828 105.964 44.5321 105.566C44.0813 105.159 43.4833 104.956 42.7378 104.956C42.0444 104.956 41.4766 105.116 41.0345 105.436C40.6011 105.756 40.3844 106.185 40.3844 106.721C40.3844 107.205 40.5881 107.582 40.9955 107.85C41.4029 108.118 42.2264 108.391 43.4659 108.668C44.7054 108.936 45.6763 109.26 46.3784 109.641C47.0892 110.013 47.6136 110.463 47.9516 110.991C48.2984 111.518 48.4717 112.159 48.4717 112.911C48.4717 114.174 47.9473 115.2 46.8985 115.987C45.8496 116.766 44.4757 117.155 42.7768 117.155C41.624 117.155 40.5968 116.947 39.6953 116.532C38.7938 116.117 38.0917 115.546 37.589 114.819C37.0862 114.092 36.8349 113.309 36.8349 112.47H39.9033C39.9467 113.214 40.2284 113.789 40.7485 114.196C41.2686 114.594 41.9577 114.793 42.8158 114.793C43.6479 114.793 44.2807 114.637 44.7141 114.326C45.1475 114.006 45.3642 113.59 45.3642 113.08Z" fill="#2B5A85"/>
<path d="M57.4301 117.155C55.4278 117.155 53.8026 116.528 52.5544 115.273C51.3148 114.01 50.6951 112.332 50.6951 110.238V109.849C50.6951 108.447 50.9638 107.197 51.5012 106.098C52.0473 104.991 52.8101 104.13 53.7896 103.515C54.769 102.901 55.8612 102.594 57.0661 102.594C58.9817 102.594 60.4596 103.204 61.4998 104.424C62.5486 105.644 63.073 107.37 63.073 109.602V110.874H53.8806C53.9759 112.033 54.3617 112.95 55.0378 113.625C55.7225 114.3 56.5807 114.637 57.6122 114.637C59.0597 114.637 60.2386 114.053 61.1487 112.885L62.852 114.508C62.2886 115.347 61.5345 116 60.5896 116.467C59.6535 116.926 58.6003 117.155 57.4301 117.155ZM57.0531 105.125C56.1863 105.125 55.4842 105.428 54.9467 106.033C54.418 106.639 54.0799 107.482 53.9326 108.564H59.9525V108.33C59.8832 107.275 59.6015 106.479 59.1074 105.942C58.6133 105.397 57.9286 105.125 57.0531 105.125Z" fill="#2B5A85"/>
<path d="M72.9026 105.735C72.4865 105.665 72.0575 105.631 71.6154 105.631C70.1678 105.631 69.1927 106.185 68.6899 107.292V116.895H65.5304V102.854H68.5469L68.6249 104.424C69.3877 103.204 70.4452 102.594 71.7974 102.594C72.2482 102.594 72.6209 102.655 72.9156 102.776L72.9026 105.735Z" fill="#2B5A85"/>
<path d="M77.8694 102.854L77.9604 104.32C78.9486 103.169 80.3008 102.594 82.0171 102.594C83.898 102.594 85.1852 103.312 85.8787 104.748C86.9015 103.312 88.3404 102.594 90.1954 102.594C91.7469 102.594 92.8998 103.022 93.6539 103.879C94.4167 104.735 94.8068 105.999 94.8241 107.668V116.895H91.6646V107.759C91.6646 106.868 91.4696 106.215 91.0795 105.8C90.6894 105.384 90.0437 105.177 89.1422 105.177C88.4227 105.177 87.8333 105.371 87.3739 105.761C86.9232 106.141 86.6068 106.643 86.4248 107.266L86.4378 116.895H83.2783V107.655C83.2349 106.003 82.3898 105.177 80.7428 105.177C79.4773 105.177 78.5802 105.691 78.0514 106.721V116.895H74.8919V102.854H77.8694Z" fill="#2B5A85"/>
<path d="M106.474 116.895C106.335 116.627 106.214 116.19 106.11 115.585C105.104 116.632 103.874 117.155 102.417 117.155C101.004 117.155 99.8516 116.753 98.9587 115.948C98.0659 115.143 97.6195 114.149 97.6195 112.963C97.6195 111.466 98.1743 110.32 99.2838 109.524C100.402 108.72 101.997 108.317 104.069 108.317H106.006V107.396C106.006 106.669 105.802 106.089 105.395 105.657C104.987 105.216 104.368 104.995 103.535 104.995C102.816 104.995 102.227 105.177 101.767 105.54C101.308 105.895 101.078 106.349 101.078 106.903H97.9186C97.9186 106.133 98.1743 105.415 98.6857 104.748C99.1971 104.074 99.8906 103.546 100.766 103.165C101.65 102.784 102.634 102.594 103.718 102.594C105.364 102.594 106.678 103.009 107.657 103.84C108.637 104.662 109.139 105.821 109.165 107.318V113.651C109.165 114.914 109.343 115.922 109.698 116.675V116.895H106.474ZM103.002 114.624C103.626 114.624 104.212 114.473 104.758 114.17C105.312 113.867 105.728 113.461 106.006 112.95V110.303H104.303C103.132 110.303 102.253 110.506 101.663 110.913C101.074 111.319 100.779 111.895 100.779 112.639C100.779 113.244 100.978 113.729 101.377 114.092C101.785 114.447 102.326 114.624 103.002 114.624Z" fill="#2B5A85"/>
<path d="M115.406 102.854L115.497 104.476C116.538 103.221 117.903 102.594 119.593 102.594C122.523 102.594 124.014 104.268 124.066 107.616V116.895H120.906V107.798C120.906 106.907 120.711 106.249 120.321 105.826C119.94 105.393 119.311 105.177 118.436 105.177C117.162 105.177 116.212 105.752 115.588 106.903V116.895H112.429V102.854H115.406Z" fill="#2B5A85"/>
<path d="M126.744 109.771C126.744 107.59 127.256 105.851 128.278 104.554C129.31 103.247 130.675 102.594 132.374 102.594C133.978 102.594 135.239 103.152 136.158 104.268L136.301 102.854H139.148V116.467C139.148 118.31 138.572 119.763 137.419 120.828C136.275 121.892 134.727 122.424 132.777 122.424C131.746 122.424 130.736 122.208 129.748 121.775C128.768 121.351 128.023 120.793 127.511 120.101L129.007 118.206C129.977 119.357 131.174 119.932 132.595 119.932C133.644 119.932 134.472 119.647 135.078 119.076C135.685 118.513 135.989 117.683 135.989 116.584V115.637C135.078 116.649 133.865 117.155 132.348 117.155C130.701 117.155 129.353 116.502 128.304 115.195C127.264 113.889 126.744 112.081 126.744 109.771ZM129.891 110.043C129.891 111.453 130.177 112.565 130.749 113.378C131.33 114.183 132.131 114.585 133.154 114.585C134.428 114.585 135.373 114.04 135.989 112.95V106.773C135.391 105.709 134.454 105.177 133.18 105.177C132.14 105.177 131.33 105.588 130.749 106.41C130.177 107.231 129.891 108.443 129.891 110.043Z" fill="#2B5A85"/>
<path d="M145.753 111.328H143.036L142.737 98H146.065L145.753 111.328ZM142.646 115.403C142.646 114.91 142.806 114.503 143.127 114.183C143.447 113.854 143.885 113.69 144.44 113.69C144.995 113.69 145.432 113.854 145.753 114.183C146.074 114.503 146.234 114.91 146.234 115.403C146.234 115.879 146.078 116.277 145.766 116.597C145.454 116.917 145.012 117.077 144.44 117.077C143.868 117.077 143.426 116.917 143.114 116.597C142.802 116.277 142.646 115.879 142.646 115.403Z" fill="#2B5A85"/>
</svg>
