<svg width="120" height="120" viewBox="0 0 120 120" fill="none" xmlns="http://www.w3.org/2000/svg">
<path d="M120 60C120 93.1366 93.1366 120 60 120C26.8634 120 0 93.1366 0 60C0 26.8634 26.8634 0 60 0C93.1366 0 120 26.8634 120 60Z" fill="#B6E9B5"/>
<path d="M108.084 60.0001C108.084 86.5633 86.5633 108.084 60.0001 108.084C33.4368 108.084 11.916 86.5633 11.916 60.0001C11.916 33.4368 33.4368 11.916 60.0001 11.916C86.5633 11.916 108.084 33.4368 108.084 60.0001Z" fill="#66CF65"/>
<path d="M60.0903 64.6525C65.3729 64.6525 69.6651 56.9986 69.6651 51.4158C69.6651 45.833 65.3729 41.3008 60.0903 41.3008C54.8077 41.3008 50.5155 45.833 50.5155 51.4158C50.5155 56.9986 54.8077 64.6525 60.0903 64.6525ZM76.9287 70.5054C76.6886 69.8751 76.2684 69.2448 75.8782 68.7345C74.4375 66.8436 72.0363 66.1232 69.7551 65.733C68.6746 65.5529 67.564 65.3728 66.4835 65.1927C64.6526 66.7535 62.4915 67.744 60.0603 67.744C57.6291 67.744 55.468 66.7235 53.6371 65.1627C52.4965 65.3428 51.3559 65.5529 50.1853 65.733C47.9342 66.1232 45.533 66.8436 44.0623 68.7345C43.6721 69.2448 43.2519 69.9051 43.0117 70.5054C42.7116 71.2558 42.5615 72.1562 42.5615 72.9666V75.2478C47.3039 77.3488 53.3069 78.6094 59.8502 78.6395C59.8802 78.6395 59.9102 78.6395 59.9402 78.6395C59.9702 78.6395 60.0003 78.6395 60.0303 78.6395C66.5735 78.6094 72.5465 77.3488 77.3189 75.2478V72.9666C77.379 72.1562 77.2289 71.2858 76.9287 70.5054Z" fill="white"/>
</svg>
