<svg width="35" height="35" viewBox="0 0 35 35" fill="none" xmlns="http://www.w3.org/2000/svg">
<circle cx="17.5" cy="17.5" r="17.5" fill="#FEF7FD"/>
<path d="M14.7248 24.488C14.3214 24.5775 13.8991 24.512 13.5417 24.3047C13.1844 24.0973 12.918 23.7632 12.7954 23.3687L10.1048 14.6893L10.0073 14.3743C9.97437 14.2699 9.94869 14.1634 9.9304 14.0555C9.8283 13.4412 9.9656 12.811 10.314 12.2948C10.6625 11.7786 11.1955 11.4156 11.8035 11.2805C11.9759 11.242 12.1519 11.2225 12.3285 11.2224C12.9164 11.2235 13.4841 11.4373 13.9266 11.8244C14.3691 12.2114 14.6566 12.7455 14.736 13.328L14.8879 14.453L14.976 15.1037L15.9998 22.658C16.0557 23.0674 15.9557 23.4829 15.7195 23.8219C15.4832 24.1609 15.1282 24.3987 14.7248 24.488Z" fill="#5CCB9D"/>
<path d="M11.4213 14.3966L10.105 14.6891L10.0075 14.3741C9.97464 14.2698 9.94896 14.1633 9.93066 14.0554C9.9314 14.0547 9.93229 14.0541 9.93327 14.0538C9.93424 14.0535 9.93527 14.0534 9.93629 14.0535L11.2788 13.7554C11.3632 13.7382 11.4509 13.7549 11.5231 13.8017C11.5953 13.8486 11.6462 13.922 11.6649 14.006C11.6836 14.0901 11.6685 14.1781 11.623 14.2511C11.5774 14.3242 11.505 14.3764 11.4213 14.3966Z" fill="#EEF9F8"/>
<path d="M14.9759 15.1035L12.4971 15.651C12.4738 15.657 12.4499 15.6602 12.4259 15.6604C12.3452 15.6599 12.2675 15.6297 12.2077 15.5756C12.1479 15.5214 12.11 15.4472 12.1015 15.367C12.0929 15.2868 12.1141 15.2062 12.1612 15.1407C12.2082 15.0751 12.2777 15.0292 12.3565 15.0116L14.8615 14.4566C14.8701 14.4545 14.8789 14.4532 14.8877 14.4529L14.9759 15.1035Z" fill="#EEF9F8"/>
<path d="M12.7393 9.31562C12.7504 9.12832 12.7189 8.94093 12.6473 8.76753C12.5756 8.59414 12.4656 8.43923 12.3254 8.31445C12.1853 8.18967 12.0187 8.09827 11.8382 8.04709C11.6577 7.99591 11.4679 7.9863 11.2832 8.01898C11.0984 8.05165 10.9235 8.12576 10.7714 8.23574C10.6194 8.34573 10.4943 8.48872 10.4055 8.65399C10.3166 8.81926 10.2664 9.0025 10.2586 9.18997C10.2507 9.37743 10.2854 9.56424 10.3601 9.73637C10.3472 9.73862 10.3346 9.73805 10.3226 9.74087C10.1611 9.77561 10.0109 9.8501 9.88551 9.95759C9.76012 10.0651 9.66355 10.2022 9.60454 10.3564C9.54554 10.5107 9.52598 10.6772 9.54762 10.841C9.56927 11.0047 9.63144 11.1604 9.7285 11.2941C9.82557 11.4277 9.95445 11.535 10.1035 11.6062C10.2525 11.6774 10.4169 11.7103 10.5818 11.7019C10.7468 11.6935 10.907 11.644 11.048 11.558C11.189 11.472 11.3063 11.3522 11.3893 11.2094C11.4964 11.3944 11.6482 11.5496 11.8308 11.6607C12.0134 11.7718 12.2209 11.8354 12.4345 11.8455C12.648 11.8556 12.8606 11.8119 13.0529 11.7186C13.2452 11.6252 13.411 11.485 13.5351 11.311C13.6592 11.1369 13.7376 10.9345 13.7632 10.7223C13.7887 10.51 13.7606 10.2948 13.6814 10.0962C13.6022 9.89768 13.4745 9.72217 13.3099 9.58579C13.1453 9.44941 12.9491 9.35651 12.7393 9.31562Z" fill="#689EEC"/>
<path d="M14.3914 12.3226C14.497 12.923 14.7604 13.4845 15.1545 13.9496C14.8745 14.1404 14.673 14.4261 14.5871 14.7539C14.5013 15.0816 14.537 15.4294 14.6875 15.733C14.8381 16.0365 15.0934 16.2754 15.4063 16.4054C15.7192 16.5354 16.0686 16.5478 16.39 16.4403C16.4705 16.7353 16.6172 17.0081 16.8188 17.238C17.0204 17.4679 17.2717 17.649 17.5536 17.7674C17.8355 17.8858 18.1407 17.9385 18.446 17.9215C18.7513 17.9045 19.0488 17.8183 19.3158 17.6693C19.5829 17.5203 19.8125 17.3125 19.9874 17.0616C20.1622 16.8107 20.2777 16.5234 20.325 16.2213C20.3723 15.9192 20.3503 15.6102 20.2605 15.3179C20.1708 15.0256 20.0157 14.7575 19.807 14.534C20.3097 14.1744 20.7069 13.6866 20.957 13.1213C21.2072 12.556 21.3012 11.934 21.2293 11.3201C21.1573 10.7062 20.9221 10.1227 20.5481 9.63058C20.1741 9.13844 19.6749 8.7556 19.1026 8.52192C18.5304 8.28824 17.9059 8.21228 17.2943 8.30195C16.6827 8.39162 16.1063 8.64364 15.6252 9.03177C15.1441 9.41989 14.7759 9.92991 14.5589 10.5087C14.3419 11.0875 14.284 11.7139 14.3914 12.3226Z" fill="#FFD101"/>
<path d="M18.3791 15.1362L19.7226 12.7302C19.7437 12.6926 19.7571 12.6512 19.7622 12.6084C19.7673 12.5656 19.7639 12.5221 19.7522 12.4806C19.7405 12.4391 19.7207 12.4003 19.694 12.3665C19.6673 12.3326 19.6342 12.3043 19.5966 12.2832C19.559 12.2622 19.5175 12.2487 19.4747 12.2436C19.4319 12.2385 19.3885 12.242 19.347 12.2537C19.3055 12.2654 19.2667 12.2851 19.2328 12.3118C19.1989 12.3385 19.1707 12.3716 19.1496 12.4092L18.201 14.1082C17.9967 12.8324 17.9053 11.5411 17.928 10.2492C17.9322 10.1622 17.9017 10.0771 17.8432 10.0125C17.7846 9.94802 17.7029 9.9094 17.6158 9.90517C17.5288 9.90095 17.4437 9.93146 17.3791 9.99001C17.3146 10.0486 17.276 10.1303 17.2718 10.2174C17.2517 10.8508 17.2654 11.4849 17.3126 12.1169L16.1186 11.2068C16.0843 11.1807 16.0452 11.1616 16.0035 11.1506C15.9618 11.1396 15.9184 11.1369 15.8756 11.1427C15.8329 11.1484 15.7917 11.1626 15.7544 11.1843C15.7172 11.206 15.6845 11.2348 15.6584 11.2691C15.6323 11.3035 15.6132 11.3426 15.6022 11.3843C15.5912 11.426 15.5885 11.4694 15.5943 11.5122C15.606 11.5985 15.6515 11.6766 15.7208 11.7294L17.3895 13.0006C17.6461 15.6116 18.3351 18.1618 19.4284 20.5467C19.4655 20.6254 19.5323 20.6861 19.6141 20.7155C19.696 20.745 19.7862 20.7407 19.8649 20.7037C19.9435 20.6666 20.0043 20.5999 20.0338 20.5181C20.0633 20.4363 20.0592 20.3461 20.0222 20.2674C19.2656 18.6311 18.7138 16.9077 18.3791 15.1362Z" fill="#EEF9F8"/>
<path d="M25.3459 12.5217C25.2682 12.9635 25.0744 13.3767 24.7843 13.7189C24.9904 13.8593 25.1386 14.0695 25.2018 14.3107C25.2649 14.5519 25.2387 14.8079 25.1279 15.0312C25.0171 15.2546 24.8292 15.4303 24.5989 15.526C24.3687 15.6216 24.1116 15.6308 23.8751 15.5517C23.8159 15.7688 23.7081 15.9696 23.5597 16.1389C23.4114 16.3081 23.2265 16.4414 23.019 16.5286C22.8116 16.6158 22.587 16.6546 22.3622 16.6421C22.1375 16.6297 21.9186 16.5662 21.7221 16.4566C21.5255 16.3469 21.3565 16.194 21.2278 16.0094C21.0992 15.8247 21.0142 15.6132 20.9794 15.3909C20.9446 15.1686 20.9608 14.9412 21.0269 14.7261C21.093 14.5109 21.2071 14.3137 21.3608 14.1492C20.9908 13.8846 20.6986 13.5256 20.5145 13.1097C20.3304 12.6937 20.2612 12.236 20.3141 11.7843C20.3671 11.3325 20.5401 10.9032 20.8153 10.541C21.0906 10.1789 21.4578 9.89717 21.8789 9.7252C22.3 9.55323 22.7595 9.49731 23.2096 9.56326C23.6596 9.62922 24.0837 9.81464 24.4378 10.1002C24.7918 10.3858 25.0628 10.7611 25.2225 11.1869C25.3822 11.6128 25.4248 12.0738 25.3459 12.5217Z" fill="#5CCB9D"/>
<path d="M24.4814 11.6944C24.4286 11.6252 24.3505 11.5799 24.2643 11.5682C24.1781 11.5566 24.0907 11.5797 24.0215 11.6323L23.2936 12.1873C23.3339 11.4726 23.3148 11.0215 23.3124 10.9686C23.3103 10.9255 23.2997 10.8832 23.2813 10.8442C23.2629 10.8052 23.2369 10.7702 23.205 10.7412C23.173 10.7122 23.1357 10.6898 23.0951 10.6753C23.0545 10.6607 23.0114 10.6543 22.9683 10.6564C22.9252 10.6585 22.883 10.669 22.8439 10.6875C22.8049 10.7059 22.7699 10.7318 22.7409 10.7638C22.712 10.7957 22.6895 10.8331 22.675 10.8737C22.6604 10.9143 22.654 10.9574 22.6561 11.0005C22.6729 11.8606 22.6187 12.7206 22.4941 13.5718L21.92 12.5434C21.899 12.5058 21.8707 12.4727 21.8369 12.4459C21.8031 12.4192 21.7644 12.3994 21.7229 12.3877C21.6814 12.3759 21.6381 12.3725 21.5953 12.3775C21.5525 12.3825 21.5111 12.3959 21.4735 12.4169C21.4358 12.4379 21.4027 12.4662 21.376 12.5C21.3493 12.5338 21.3295 12.5725 21.3177 12.614C21.306 12.6555 21.3025 12.6988 21.3076 12.7416C21.3126 12.7844 21.326 12.8258 21.347 12.8635L22.3209 14.6072C22.0753 15.8925 21.6733 17.1428 21.1239 18.3304C21.0869 18.4091 21.0827 18.4993 21.1122 18.5811C21.1417 18.6629 21.2025 18.7297 21.2812 18.7667C21.3599 18.8037 21.4501 18.808 21.5319 18.7786C21.6138 18.7491 21.6806 18.6884 21.7177 18.6098C22.5212 16.8575 23.0295 14.9844 23.222 13.0663L24.4195 12.1534C24.4885 12.1007 24.5338 12.0227 24.5454 11.9367C24.557 11.8506 24.534 11.7635 24.4814 11.6944Z" fill="#EEF9F8"/>
<path d="M23.803 26.7923H11.1257C10.8015 26.7925 10.4878 26.6774 10.2407 26.4675C9.99361 26.2577 9.82919 25.9668 9.77686 25.6469L8.65186 18.7373H26.2769L25.1519 25.6469C25.0995 25.9668 24.9351 26.2577 24.688 26.4675C24.4409 26.6774 24.1272 26.7925 23.803 26.7923Z" fill="#689EEC"/>
<path d="M8 17.1101H26.9287V18.7372H8V17.1101Z" fill="#5D95E4"/>
<path d="M17.4644 20.1233C17.3773 20.1233 17.2939 20.1579 17.2323 20.2194C17.1708 20.2809 17.1362 20.3644 17.1362 20.4514V25.0409C17.1362 25.1279 17.1708 25.2113 17.2323 25.2729C17.2939 25.3344 17.3773 25.369 17.4644 25.369C17.5514 25.369 17.6348 25.3344 17.6964 25.2729C17.7579 25.2113 17.7925 25.1279 17.7925 25.0409V20.4514C17.7925 20.3644 17.7579 20.2809 17.6964 20.2194C17.6348 20.1579 17.5514 20.1233 17.4644 20.1233Z" fill="#FFD101"/>
<path d="M14.6634 20.1244C14.5767 20.1316 14.4964 20.1729 14.4402 20.2392C14.3839 20.3056 14.3563 20.3915 14.3634 20.4782L14.7384 25.0677C14.7451 25.1497 14.7824 25.2262 14.8429 25.282C14.9034 25.3378 14.9827 25.3689 15.065 25.369C15.074 25.369 15.0838 25.369 15.0922 25.3678C15.1789 25.3607 15.2592 25.3194 15.3155 25.253C15.3717 25.1867 15.3993 25.1007 15.3922 25.014L15.0172 20.4246C15.01 20.3379 14.9686 20.2577 14.9023 20.2014C14.836 20.1451 14.7501 20.1175 14.6634 20.1244Z" fill="#FFD101"/>
<path d="M12.092 20.3985C12.0856 20.3556 12.0706 20.3144 12.0481 20.2773C12.0256 20.2401 11.9959 20.2079 11.9608 20.1823C11.9257 20.1567 11.8859 20.1384 11.8436 20.1283C11.8014 20.1183 11.7576 20.1167 11.7147 20.1237C11.6718 20.1307 11.6308 20.1461 11.594 20.1691C11.5571 20.1921 11.5252 20.2221 11.5 20.2575C11.4749 20.2929 11.457 20.333 11.4475 20.3753C11.4379 20.4177 11.4369 20.4615 11.4444 20.5043L12.1944 25.0937C12.2009 25.1367 12.2158 25.1779 12.2384 25.215C12.2609 25.2521 12.2906 25.2844 12.3257 25.31C12.3608 25.3356 12.4006 25.3539 12.4428 25.364C12.4851 25.374 12.5289 25.3756 12.5717 25.3686C12.6146 25.3616 12.6556 25.3462 12.6925 25.3232C12.7293 25.3002 12.7612 25.2702 12.7864 25.2348C12.8115 25.1994 12.8294 25.1593 12.8389 25.117C12.8485 25.0746 12.8495 25.0308 12.842 24.988L12.092 20.3985Z" fill="#FFD101"/>
<path d="M20.2651 20.1244C20.2221 20.1208 20.1789 20.1257 20.1379 20.1389C20.0968 20.152 20.0588 20.1731 20.026 20.201C19.9931 20.2289 19.966 20.2629 19.9464 20.3013C19.9267 20.3396 19.9148 20.3814 19.9113 20.4244L19.5363 25.0138C19.5291 25.1005 19.5568 25.1865 19.613 25.2528C19.6693 25.3192 19.7496 25.3604 19.8363 25.3676C19.8453 25.3676 19.855 25.3687 19.8634 25.3687C19.9458 25.3686 20.025 25.3376 20.0855 25.2818C20.146 25.226 20.1833 25.1495 20.1901 25.0674L20.5651 20.478C20.5721 20.3913 20.5445 20.3054 20.4882 20.2391C20.432 20.1728 20.3517 20.1315 20.2651 20.1244Z" fill="#FFD101"/>
<path d="M23.2132 20.1274C23.1707 20.1203 23.1271 20.1217 23.0851 20.1315C23.0432 20.1413 23.0035 20.1593 22.9685 20.1845C22.9335 20.2097 22.9038 20.2415 22.8812 20.2782C22.8585 20.3149 22.8433 20.3557 22.8365 20.3983L22.0865 24.9877C22.079 25.0305 22.08 25.0743 22.0896 25.1167C22.0991 25.159 22.117 25.1991 22.1421 25.2345C22.1673 25.2699 22.1992 25.3 22.236 25.3229C22.2729 25.3459 22.3139 25.3613 22.3568 25.3683C22.3996 25.3753 22.4435 25.3738 22.4857 25.3637C22.5279 25.3536 22.5678 25.3353 22.6029 25.3097C22.638 25.2842 22.6676 25.2519 22.6902 25.2148C22.7127 25.1776 22.7276 25.1364 22.7341 25.0935L23.4841 20.504C23.4981 20.4182 23.4775 20.3302 23.4267 20.2596C23.3759 20.1889 23.2991 20.1414 23.2132 20.1274Z" fill="#FFD101"/>
</svg>
