<svg width="357" height="577" viewBox="0 0 357 577" fill="none" xmlns="http://www.w3.org/2000/svg">
<path d="M0 342.5V113C43.5 138 45.5 165 45.5 165C45.5 165 56 232.5 0 342.5Z" fill="#8BC7F5"/>
<path d="M313.499 0H356.499V182C294.5 128.5 247.231 96.6923 313.499 0Z" fill="#ECD888"/>
<path d="M356 485.5V447C323.093 433.947 297.576 439.057 241 465C277 485 307.85 483.055 356 485.5Z" fill="#B3D7E4"/>
<path d="M0 413.42V449.752C104.482 481.967 207 489 242 465C146.5 417.054 128 379.353 0 413.42Z" fill="#B3D7E4"/>
<path d="M0 577V439C99.9998 476.142 183.5 489.202 241.5 464.754C283 481.679 300 480.648 356 484.73V577H0Z" fill="#3ACA96"/>
</svg>
