<svg width="256" height="193" viewBox="0 0 256 193" fill="none" xmlns="http://www.w3.org/2000/svg">
<path opacity="0.47" d="M0.278946 65.1461C1.51033 53.2656 7.5011 41.3655 17.9092 32.8752C34.1126 19.6366 58.6523 16.3343 80.1721 19.4217C89.1827 20.7211 98.1249 22.9976 107.35 22.2941C120.808 21.2683 132.652 14.1263 144.888 8.89921C161.561 1.78652 180.666 -2.02384 198.404 1.10261C218.517 4.64919 235.013 17.9757 237.007 35.6304C237.906 43.6322 228.876 57.711 231.749 65.2927C234.662 72.9818 255.859 96.5572 255.36 114.476C254.852 133.039 244.431 153.814 207.716 174.407C171 195 49.3065 179.431 27.0003 160C4.69397 140.569 10.2863 130.684 15.5441 118.022C19.5412 108.389 8.62497 100.426 4.40309 91.4474C0.630768 83.4554 -0.620163 73.8513 0.278946 65.1461Z" fill="#C2ECE0"/>
<path opacity="0.2" fill-rule="evenodd" clip-rule="evenodd" d="M35.0002 165.5C42.0002 169.5 182.5 211.5 232.644 158.058C241.106 146.558 240.593 143.257 232.644 137.968C182.571 104.646 153.476 144.007 125.744 144.007C107.953 144.007 39.722 134.102 27.6825 149.558C21.5043 157.489 28.0002 161.5 35.0002 165.5Z" fill="#FFD101"/>
<path d="M117.252 45.0738C116.808 45.0738 116.453 44.7186 116.453 44.2747C116.453 43.8307 116.808 43.4755 117.252 43.4755H133.531C133.975 43.4755 134.33 43.8307 134.33 44.2747C134.33 44.7186 133.975 45.0738 133.531 45.0738H117.252Z" fill="#E4E8ED"/>
<path d="M163.04 24.7429C169.64 24.7429 174.997 30.1001 174.997 36.7003V180.426C174.997 187.026 169.64 192.384 163.04 192.384H92.1537C85.5535 192.384 80.1963 187.026 80.1963 180.426V36.7299C80.1963 30.1297 85.5535 24.7725 92.1537 24.7725H163.04V24.7429Z" fill="#2B5A85"/>
<path d="M159.696 25.1565C166.296 25.1565 171.653 30.5137 171.653 37.1139V180.218C171.653 186.818 166.296 192.176 159.696 192.176H88.9574C82.3572 192.176 77 186.818 77 180.218V37.1139C77 30.5137 82.3572 25.1565 88.9574 25.1565H159.696Z" fill="#689EEC"/>
<path d="M162.655 42.9744H85.7607V172.464H162.655V42.9744Z" fill="#81B0F6"/>
<path d="M119.976 181.166H120.745C121.248 179.627 122.699 178.502 124.415 178.502C126.546 178.502 128.293 180.248 128.293 182.379C128.293 184.51 126.546 186.256 124.415 186.256C122.728 186.256 121.307 185.191 120.775 183.681H120.005C120.568 185.576 122.343 186.996 124.415 186.996C126.961 186.996 129.032 184.925 129.032 182.379C129.032 179.834 126.961 177.762 124.415 177.762C122.284 177.762 120.508 179.212 119.976 181.166Z" fill="#2B5A85"/>
<path d="M124.445 181.965H119.177V182.853H124.445V181.965Z" fill="#2B5A85"/>
<path d="M183.368 101.713C183.368 101.713 181.585 100.242 179.315 100.815C175.885 101.698 175.308 115.91 175.308 120.157C175.827 123.596 170.948 134.724 170.948 134.724L173.564 136.531C173.564 136.531 175.423 136.239 178.169 127.088C180.839 118.175 186.676 108.625 184.514 103.206L183.368 101.713Z" fill="#FFD101"/>
<path d="M179.43 175.705L179.344 180.183C179.344 180.183 172.091 183.471 171.745 182.801C171.41 182.13 173.518 178.582 175.463 177.987C177.409 177.393 176.728 175.283 176.728 175.283L179.43 175.705Z" fill="#7A0C0E"/>
<path d="M201.027 171.573C201.027 171.573 203.815 174.786 203.469 176.214C203.134 177.652 197.568 181.362 197.568 181.362C197.568 181.362 195.46 181.957 196.811 178.572C198.162 175.197 198.584 172.579 198.584 172.579L201.027 171.573Z" fill="#7A0C0E"/>
<path d="M176.22 133.068C176.22 133.068 173.604 148.102 174.361 157.048C175.118 166.004 175.377 176.214 175.377 176.214L180.101 176.474C180.101 176.474 181.117 154.776 181.96 152.829C182.803 150.882 184.327 144.977 184.327 144.977L185.678 145.398C185.678 145.398 186.186 156.204 187.451 158.4C188.715 160.595 197.914 173.932 197.914 173.932L201.459 171.823C201.459 171.823 193.698 155.36 193.947 154.257C194.196 153.154 194.196 135.675 194.196 135.675L186.435 134.744L176.22 133.068Z" fill="#2F9B6E"/>
<path d="M181.938 98.5634C181.938 98.5634 184.208 100.132 185.548 100.024C186.888 99.9047 188.747 98.3363 188.747 98.3363C188.747 98.3363 193.59 99.5045 195.795 104.804L196.389 106.935L192.25 136.02C192.876 136.561 181.462 137.134 175.377 134.42C175.063 134.279 175.377 133.998 175.377 133.998C175.377 133.998 177.571 108.071 177.571 106.135C177.571 104.199 178.284 98.6824 181.938 98.5634Z" fill="#FFD101"/>
<path d="M183.559 98.5633L183.613 96.8759C183.613 96.8759 180.879 96.2378 180.349 94.1935C179.83 92.1492 179.592 87.8984 179.592 87.8984L181.689 85.0429L184.305 84.8049L186.986 87.4225L188.791 89.4019L188.499 91.7274L186.867 95.167L186.921 98.3145L189.537 98.9527C189.537 98.9527 189.71 102.1 185.753 101.754C181.797 101.408 181.624 99.0717 181.624 99.0717L183.559 98.5633Z" fill="#FFA87B"/>
<path d="M186.413 95.6538C185.829 95.1346 187.699 91.522 187.461 90.1807C187.461 90.1807 185.602 90.5269 184.781 89.6616C183.97 88.7854 180.879 88.7314 181.635 86.5681C181.635 86.5681 179.83 87.3252 179.949 89.7156C179.949 89.7156 177.214 89.4236 177.906 88.3744C178.609 87.3252 180.414 81.7873 184.889 82.4363C189.374 83.0744 190.596 86.4491 190.423 89.5426C190.25 92.5711 187.515 95.5997 187.515 95.5997L186.413 95.6538Z" fill="#5D95E4"/>
<path d="M191.125 140.78C191.655 141.017 192.282 140.79 192.52 140.26L193.644 137.805C193.882 137.275 193.655 136.648 193.125 136.41C192.595 136.172 191.969 136.399 191.731 136.929L190.607 139.384C190.358 139.914 190.596 140.542 191.125 140.78Z" fill="#FFA87B"/>
<path d="M195.017 104.296C195.017 104.296 193.233 102.825 190.963 103.399C188.693 103.983 189.569 109.056 189.569 109.056C189.569 109.056 192.941 118.606 193.471 122.046C193.99 125.486 190.444 137.308 190.444 137.308L193.06 139.114C193.06 139.114 194.919 138.822 197.665 129.672C200.335 120.759 198.324 111.208 196.162 105.789L195.017 104.296Z" fill="#FFD101"/>
<path d="M180.889 143.927L166.794 142.489L165.681 164.013C165.681 164.013 165.843 165.56 167.713 165.56C169.583 165.56 171.205 167.074 171.205 167.074L180.889 143.927ZM178.814 146.318L178.879 147.01C178.836 146.848 178.803 146.675 178.803 146.491C178.793 146.437 178.803 146.382 178.814 146.318ZM179.074 149.357L179.257 151.509C178.976 151.25 178.782 150.817 178.782 150.32C178.793 149.941 178.901 149.606 179.074 149.357ZM179.376 152.872L179.603 155.533C179.128 155.392 178.771 154.819 178.771 154.138C178.782 153.575 179.03 153.099 179.376 152.872ZM167.865 162.791L167.659 160.519C167.983 160.768 168.2 161.222 168.2 161.763C168.189 162.163 168.059 162.531 167.865 162.791ZM167.529 159.254L167.281 156.528C167.8 156.615 168.2 157.21 168.2 157.934C168.2 158.54 167.919 159.048 167.529 159.254ZM167.194 155.533L166.935 152.721C167.011 152.699 167.086 152.688 167.162 152.688C167.746 152.688 168.221 153.327 168.21 154.116C168.21 154.884 167.756 155.501 167.194 155.533ZM167.162 151.715C167.043 151.715 166.935 151.682 166.838 151.639L166.6 149.097C166.762 148.957 166.957 148.87 167.162 148.87C167.746 148.87 168.221 149.508 168.21 150.298C168.221 151.077 167.746 151.715 167.162 151.715ZM167.173 147.886C166.892 147.886 166.643 147.735 166.459 147.507L166.319 145.993L168.178 146.015C168.21 146.155 168.232 146.307 168.232 146.469C168.232 147.259 167.756 147.886 167.173 147.886ZM170.307 163.191C169.724 163.191 169.248 162.553 169.259 161.763C169.259 160.974 169.735 160.336 170.318 160.346C170.902 160.346 171.378 160.984 171.367 161.774C171.356 162.553 170.891 163.191 170.307 163.191ZM170.307 159.362C169.724 159.362 169.248 158.724 169.259 157.934C169.259 157.145 169.735 156.507 170.318 156.517C170.902 156.517 171.378 157.156 171.367 157.945C171.367 158.735 170.891 159.373 170.307 159.362ZM170.318 155.544C169.735 155.544 169.259 154.906 169.27 154.116C169.27 153.327 169.745 152.688 170.329 152.699C170.913 152.699 171.388 153.337 171.378 154.127C171.378 154.906 170.902 155.544 170.318 155.544ZM170.329 151.715C169.745 151.715 169.27 151.077 169.281 150.287C169.281 149.498 169.756 148.859 170.34 148.87C170.924 148.87 171.399 149.508 171.388 150.298C171.388 151.088 170.913 151.726 170.329 151.715ZM170.34 147.897C169.756 147.897 169.281 147.259 169.291 146.469C169.291 146.318 169.313 146.166 169.345 146.036L171.356 146.069C171.388 146.199 171.41 146.339 171.41 146.48C171.399 147.259 170.924 147.897 170.34 147.897ZM173.474 163.202C172.891 163.202 172.415 162.564 172.426 161.774C172.426 160.984 172.902 160.346 173.485 160.357C174.069 160.357 174.545 160.995 174.534 161.785C174.534 162.564 174.058 163.202 173.474 163.202ZM173.485 159.373C172.902 159.373 172.426 158.735 172.437 157.945C172.437 157.156 172.912 156.517 173.496 156.528C174.08 156.528 174.555 157.166 174.545 157.956C174.545 158.735 174.069 159.373 173.485 159.373ZM173.496 155.555C172.912 155.555 172.437 154.917 172.448 154.127C172.448 153.337 172.923 152.699 173.507 152.71C174.091 152.71 174.566 153.348 174.555 154.138C174.545 154.917 174.08 155.555 173.496 155.555ZM173.496 151.726C172.912 151.726 172.437 151.088 172.448 150.298C172.448 149.508 172.923 148.87 173.507 148.881C174.091 148.881 174.566 149.519 174.555 150.309C174.555 151.088 174.08 151.726 173.496 151.726ZM173.507 147.908C172.923 147.908 172.448 147.269 172.458 146.48C172.458 146.339 172.48 146.209 172.502 146.08L174.523 146.112C174.545 146.231 174.566 146.361 174.566 146.491C174.566 147.269 174.091 147.908 173.507 147.908ZM176.642 163.202C176.058 163.202 175.582 162.564 175.593 161.774C175.593 160.984 176.069 160.346 176.652 160.357C177.236 160.357 177.712 160.995 177.701 161.785C177.701 162.574 177.225 163.202 176.642 163.202ZM176.652 159.384C176.069 159.384 175.593 158.746 175.604 157.956C175.604 157.166 176.079 156.528 176.663 156.539C177.247 156.539 177.722 157.177 177.712 157.967C177.712 158.746 177.236 159.384 176.652 159.384ZM176.663 155.555C176.079 155.555 175.604 154.917 175.615 154.127C175.615 153.337 176.09 152.699 176.674 152.71C177.258 152.71 177.733 153.348 177.722 154.138C177.722 154.927 177.247 155.566 176.663 155.555ZM176.674 151.737C176.09 151.737 175.615 151.098 175.625 150.309C175.625 149.519 176.101 148.881 176.685 148.892C177.268 148.892 177.744 149.53 177.733 150.32C177.733 151.098 177.258 151.737 176.674 151.737ZM176.685 147.908C176.101 147.908 175.625 147.269 175.636 146.48C175.636 146.35 175.658 146.231 175.68 146.123L177.722 146.155C177.744 146.263 177.755 146.372 177.755 146.491C177.733 147.28 177.268 147.918 176.685 147.908Z" fill="#1F4567"/>
<path d="M132 149.584L134.237 170.146L163.162 170.979L166.967 142.478L132 149.584ZM145.954 149.595C145.749 150.017 145.371 150.298 144.938 150.298C144.625 150.298 144.333 150.147 144.117 149.898L145.954 149.595ZM135.61 160.444L135.459 158.908C135.632 159.157 135.74 159.47 135.74 159.816C135.74 160.044 135.686 160.26 135.61 160.444ZM135.286 157.112L135.048 154.7C135.459 154.927 135.74 155.425 135.74 155.998C135.751 156.453 135.567 156.853 135.286 157.112ZM134.94 153.521L134.735 151.455L135.513 151.326C135.664 151.564 135.751 151.856 135.751 152.18C135.762 152.807 135.416 153.337 134.94 153.521ZM138.399 168.913L137.048 168.924C136.734 168.664 136.529 168.232 136.529 167.745C136.529 166.955 137.059 166.317 137.718 166.328C138.377 166.328 138.896 166.966 138.896 167.756C138.907 168.232 138.702 168.653 138.399 168.913ZM137.729 165.354C137.069 165.354 136.551 164.716 136.551 163.927C136.551 163.137 137.08 162.499 137.74 162.51C138.399 162.51 138.918 163.148 138.918 163.937C138.918 164.716 138.388 165.354 137.729 165.354ZM137.74 161.525C137.08 161.525 136.561 160.887 136.561 160.098C136.561 159.308 137.091 158.67 137.75 158.681C138.41 158.692 138.929 159.319 138.929 160.108C138.929 160.898 138.399 161.525 137.74 161.525ZM137.75 157.707C137.091 157.707 136.572 157.069 136.572 156.279C136.572 155.49 137.102 154.852 137.761 154.863C138.421 154.863 138.939 155.501 138.939 156.29C138.939 157.069 138.399 157.707 137.75 157.707ZM137.761 153.878C137.102 153.878 136.583 153.24 136.583 152.45C136.583 151.661 137.113 151.023 137.772 151.034C138.431 151.034 138.95 151.672 138.95 152.461C138.95 153.251 138.41 153.878 137.761 153.878ZM141.988 168.88L140.561 168.891C140.269 168.632 140.085 168.221 140.085 167.756C140.085 166.966 140.615 166.328 141.274 166.339C141.934 166.339 142.452 166.977 142.452 167.766C142.463 168.221 142.279 168.621 141.988 168.88ZM141.285 165.354C140.626 165.354 140.107 164.716 140.107 163.927C140.107 163.137 140.636 162.499 141.296 162.51C141.955 162.51 142.474 163.148 142.474 163.937C142.463 164.727 141.934 165.365 141.285 165.354ZM141.296 161.536C140.636 161.536 140.118 160.898 140.118 160.108C140.118 159.319 140.647 158.681 141.307 158.692C141.966 158.692 142.485 159.33 142.485 160.119C142.474 160.898 141.944 161.536 141.296 161.536ZM141.307 157.718C140.647 157.718 140.128 157.08 140.128 156.29C140.128 155.501 140.658 154.863 141.317 154.873C141.977 154.873 142.496 155.512 142.496 156.301C142.485 157.08 141.955 157.718 141.307 157.718ZM141.317 153.889C140.658 153.889 140.139 153.251 140.139 152.461C140.139 151.672 140.669 151.034 141.328 151.044C141.988 151.044 142.506 151.683 142.506 152.472C142.496 153.251 141.966 153.889 141.317 153.889ZM145.587 168.859L144.085 168.87C143.814 168.61 143.641 168.21 143.641 167.766C143.641 166.977 144.171 166.339 144.83 166.349C145.49 166.349 146.009 166.988 146.009 167.777C146.009 168.21 145.846 168.588 145.587 168.859ZM144.83 165.365C144.171 165.365 143.652 164.727 143.652 163.937C143.652 163.148 144.182 162.51 144.841 162.52C145.5 162.52 146.019 163.159 146.019 163.948C146.019 164.727 145.49 165.365 144.83 165.365ZM144.841 161.547C144.182 161.547 143.663 160.909 143.663 160.119C143.663 159.33 144.193 158.692 144.852 158.702C145.511 158.702 146.03 159.34 146.03 160.13C146.03 160.909 145.5 161.547 144.841 161.547ZM144.852 157.718C144.193 157.718 143.674 157.08 143.674 156.29C143.674 155.501 144.203 154.863 144.863 154.873C145.522 154.873 146.041 155.512 146.041 156.301C146.041 157.091 145.511 157.718 144.852 157.718ZM144.863 153.9C144.203 153.9 143.685 153.262 143.685 152.472C143.685 151.683 144.214 151.044 144.874 151.055C145.533 151.055 146.052 151.693 146.052 152.483C146.052 153.262 145.522 153.9 144.863 153.9ZM149.176 168.826L147.597 168.837C147.349 168.578 147.198 168.199 147.198 167.777C147.198 166.988 147.727 166.349 148.387 166.36C149.046 166.36 149.565 166.998 149.565 167.788C149.565 168.188 149.413 168.567 149.176 168.826ZM148.387 165.376C147.727 165.376 147.208 164.738 147.208 163.948C147.208 163.159 147.738 162.52 148.397 162.531C149.057 162.531 149.576 163.169 149.576 163.959C149.576 164.738 149.046 165.376 148.387 165.376ZM148.397 161.547C147.738 161.547 147.219 160.909 147.219 160.119C147.219 159.33 147.749 158.692 148.408 158.702C149.067 158.702 149.586 159.34 149.586 160.13C149.586 160.92 149.057 161.558 148.397 161.547ZM148.408 157.729C147.749 157.729 147.23 157.091 147.23 156.301C147.23 155.512 147.76 154.873 148.419 154.884C149.078 154.884 149.597 155.522 149.597 156.312C149.597 157.091 149.057 157.729 148.408 157.729ZM148.419 153.9C147.76 153.9 147.241 153.262 147.241 152.472C147.241 151.683 147.77 151.044 148.43 151.055C149.089 151.055 149.608 151.693 149.608 152.483C149.608 153.273 149.067 153.911 148.419 153.9ZM148.484 150.309C147.965 150.309 147.533 149.909 147.37 149.357L149.662 148.978C149.619 149.714 149.111 150.309 148.484 150.309ZM152.764 168.794L151.11 168.805C150.883 168.545 150.743 168.177 150.743 167.777C150.743 166.988 151.273 166.349 151.932 166.36C152.591 166.36 153.11 166.998 153.11 167.788C153.121 168.177 152.98 168.534 152.764 168.794ZM151.943 165.387C151.283 165.387 150.765 164.749 150.765 163.959C150.765 163.169 151.294 162.531 151.954 162.542C152.613 162.542 153.132 163.18 153.132 163.97C153.121 164.749 152.591 165.387 151.943 165.387ZM151.954 161.558C151.294 161.558 150.775 160.92 150.775 160.13C150.775 159.34 151.305 158.702 151.964 158.713C152.624 158.713 153.142 159.351 153.142 160.141C153.132 160.92 152.602 161.558 151.954 161.558ZM151.964 157.74C151.305 157.74 150.786 157.102 150.786 156.312C150.786 155.522 151.316 154.884 151.975 154.895C152.634 154.895 153.153 155.533 153.153 156.323C153.142 157.102 152.613 157.74 151.964 157.74ZM151.975 153.911C151.316 153.911 150.797 153.273 150.797 152.483C150.797 151.693 151.327 151.055 151.986 151.066C152.645 151.066 153.164 151.704 153.164 152.494C153.153 153.273 152.624 153.911 151.975 153.911ZM152.04 150.309C151.381 150.309 150.862 149.671 150.862 148.881C150.862 148.849 150.873 148.805 150.873 148.773L153.153 148.394C153.197 148.546 153.229 148.719 153.229 148.892C153.218 149.682 152.689 150.309 152.04 150.309ZM156.526 168.762L154.818 168.772C154.613 168.513 154.483 168.167 154.483 167.788C154.483 166.998 155.012 166.36 155.672 166.371C156.331 166.371 156.85 167.009 156.85 167.799C156.85 168.167 156.731 168.513 156.526 168.762ZM155.672 165.387C155.012 165.387 154.494 164.749 154.494 163.959C154.494 163.169 155.023 162.531 155.683 162.542C156.342 162.542 156.861 163.18 156.861 163.97C156.861 164.759 156.331 165.387 155.672 165.387ZM155.683 161.569C155.023 161.569 154.504 160.93 154.504 160.141C154.504 159.351 155.034 158.713 155.693 158.724C156.353 158.724 156.872 159.362 156.872 160.152C156.872 160.93 156.342 161.569 155.683 161.569ZM155.693 157.74C155.034 157.74 154.515 157.102 154.515 156.312C154.515 155.522 155.045 154.884 155.704 154.895C156.364 154.895 156.882 155.533 156.882 156.323C156.882 157.112 156.353 157.74 155.693 157.74ZM155.704 153.922C155.045 153.922 154.526 153.283 154.526 152.494C154.526 151.704 155.056 151.066 155.715 151.077C156.374 151.077 156.893 151.715 156.893 152.505C156.893 153.283 156.364 153.922 155.704 153.922ZM155.769 150.32C155.11 150.32 154.591 149.682 154.591 148.892C154.591 148.611 154.667 148.34 154.785 148.124L156.558 147.832C156.807 148.092 156.969 148.47 156.958 148.903C156.958 149.682 156.428 150.32 155.769 150.32ZM159.704 168.74L158.007 168.751C157.801 168.491 157.671 168.145 157.671 167.756C157.671 166.966 158.201 166.328 158.86 166.339C159.52 166.339 160.039 166.977 160.039 167.766C160.039 168.134 159.909 168.48 159.704 168.74ZM158.86 165.354C158.201 165.354 157.682 164.716 157.682 163.927C157.682 163.137 158.212 162.499 158.871 162.51C159.531 162.51 160.049 163.148 160.049 163.937C160.049 164.716 159.52 165.354 158.86 165.354ZM158.871 161.525C158.212 161.525 157.693 160.887 157.693 160.098C157.693 159.308 158.223 158.67 158.882 158.681C159.541 158.681 160.06 159.319 160.06 160.108C160.06 160.898 159.531 161.525 158.871 161.525ZM158.882 157.707C158.223 157.707 157.704 157.069 157.704 156.279C157.704 155.49 158.234 154.852 158.893 154.863C159.552 154.863 160.071 155.501 160.071 156.29C160.071 157.069 159.541 157.707 158.882 157.707ZM158.893 153.878C158.234 153.878 157.715 153.24 157.715 152.45C157.715 151.661 158.244 151.023 158.904 151.034C159.563 151.034 160.082 151.672 160.082 152.461C160.082 153.251 159.552 153.878 158.893 153.878ZM158.958 150.276C158.298 150.276 157.78 149.638 157.78 148.849C157.78 148.178 158.169 147.616 158.688 147.475L158.882 147.443C158.904 147.443 158.936 147.432 158.958 147.432C159.617 147.432 160.136 148.07 160.136 148.859C160.147 149.649 159.617 150.287 158.958 150.276ZM161.422 164.705C161.303 164.478 161.228 164.219 161.228 163.927C161.228 163.483 161.401 163.094 161.671 162.834L161.422 164.705ZM161.876 161.363C161.498 161.125 161.249 160.649 161.249 160.108C161.249 159.405 161.682 158.832 162.233 158.713L161.876 161.363ZM162.363 157.707C161.746 157.664 161.249 157.047 161.249 156.29C161.249 155.501 161.779 154.863 162.438 154.873C162.546 154.873 162.644 154.895 162.73 154.927L162.363 157.707ZM162.892 153.781C162.752 153.846 162.6 153.889 162.449 153.889C161.79 153.889 161.271 153.251 161.271 152.461C161.271 151.672 161.801 151.034 162.46 151.044C162.752 151.044 163.011 151.174 163.217 151.39L162.892 153.781ZM162.514 150.287C161.855 150.287 161.336 149.649 161.336 148.859C161.336 148.07 161.865 147.432 162.525 147.443C163.033 147.443 163.454 147.821 163.627 148.351L163.444 149.757C163.217 150.082 162.881 150.287 162.514 150.287Z" fill="#3F6E99"/>
<path d="M140.848 184.496C142.122 183.968 142.727 182.506 142.199 181.231C141.671 179.956 140.211 179.351 138.937 179.879C137.663 180.407 137.058 181.869 137.585 183.144C138.113 184.418 139.574 185.024 140.848 184.496Z" fill="#2B5A85"/>
<path d="M140.269 184.347C141.439 184.347 142.388 183.398 142.388 182.227C142.388 181.057 141.439 180.107 140.269 180.107C139.099 180.107 138.15 181.057 138.15 182.227C138.15 183.398 139.099 184.347 140.269 184.347Z" fill="#3F6E99"/>
<path d="M141.551 182.539C141.72 181.824 141.277 181.108 140.563 180.939C139.848 180.77 139.132 181.213 138.963 181.928C138.795 182.643 139.237 183.359 139.952 183.528C140.666 183.697 141.382 183.254 141.551 182.539Z" fill="#81B0F6"/>
<path d="M154.853 183.952C155.828 182.976 155.828 181.394 154.853 180.418C153.878 179.442 152.297 179.442 151.322 180.418C150.347 181.394 150.347 182.976 151.322 183.952C152.297 184.927 153.878 184.927 154.853 183.952Z" fill="#2B5A85"/>
<path d="M153.467 184.347C154.637 184.347 155.586 183.398 155.586 182.227C155.586 181.057 154.637 180.107 153.467 180.107C152.297 180.107 151.349 181.057 151.349 182.227C151.349 183.398 152.297 184.347 153.467 184.347Z" fill="#3F6E99"/>
<path d="M154.401 183.166C154.921 182.646 154.921 181.804 154.401 181.284C153.882 180.765 153.04 180.765 152.521 181.284C152.002 181.804 152.002 182.646 152.521 183.166C153.04 183.685 153.882 183.685 154.401 183.166Z" fill="#81B0F6"/>
<path d="M177.13 183.95C178.105 182.974 178.105 181.392 177.13 180.416C176.155 179.44 174.574 179.44 173.599 180.416C172.623 181.392 172.623 182.974 173.599 183.95C174.574 184.925 176.155 184.925 177.13 183.95Z" fill="#2B5A85"/>
<path d="M175.733 184.348C176.903 184.348 177.852 183.399 177.852 182.228C177.852 181.057 176.903 180.108 175.733 180.108C174.563 180.108 173.615 181.057 173.615 182.228C173.615 183.399 174.563 184.348 175.733 184.348Z" fill="#3F6E99"/>
<path d="M176.692 183.152C177.202 182.623 177.186 181.781 176.657 181.271C176.129 180.761 175.287 180.777 174.777 181.306C174.268 181.835 174.284 182.677 174.812 183.187C175.341 183.697 176.183 183.681 176.692 183.152Z" fill="#81B0F6"/>
<path d="M160.278 183.947C161.253 182.971 161.253 181.389 160.278 180.413C159.303 179.438 157.722 179.438 156.747 180.413C155.771 181.389 155.771 182.971 156.747 183.947C157.722 184.923 159.303 184.923 160.278 183.947Z" fill="#2B5A85"/>
<path d="M158.882 184.347C160.052 184.347 161.001 183.398 161.001 182.227C161.001 181.056 160.052 180.107 158.882 180.107C157.712 180.107 156.764 181.056 156.764 182.227C156.764 183.398 157.712 184.347 158.882 184.347Z" fill="#3F6E99"/>
<path d="M159.818 183.169C160.338 182.65 160.338 181.807 159.818 181.288C159.299 180.768 158.457 180.768 157.938 181.288C157.419 181.807 157.419 182.65 157.938 183.169C158.457 183.689 159.299 183.689 159.818 183.169Z" fill="#81B0F6"/>
<path d="M175.82 182.942C175.366 182.942 175.009 182.574 175.009 182.13V177.49C175.009 177.036 175.377 176.679 175.82 176.679C176.274 176.679 176.631 177.047 176.631 177.49V182.13C176.641 182.585 176.274 182.942 175.82 182.942Z" fill="#C2ECE0"/>
<path d="M158.753 182.942C158.299 182.942 157.942 182.595 157.942 182.174V178.334C157.942 177.912 158.309 177.566 158.753 177.566C159.196 177.566 159.563 177.912 159.563 178.334V182.174C159.563 182.606 159.207 182.942 158.753 182.942Z" fill="#C2ECE0"/>
<path d="M153.553 182.942C153.099 182.942 152.743 182.595 152.743 182.174V178.334C152.743 177.912 153.11 177.566 153.553 177.566C154.007 177.566 154.364 177.912 154.364 178.334V182.174C154.364 182.606 153.997 182.942 153.553 182.942Z" fill="#C2ECE0"/>
<path d="M140.301 182.942C139.847 182.942 139.491 182.595 139.491 182.174V178.334C139.491 177.912 139.858 177.566 140.301 177.566C140.755 177.566 141.112 177.912 141.112 178.334V182.174C141.112 182.606 140.745 182.942 140.301 182.942Z" fill="#C2ECE0"/>
<path d="M160.46 178.55C160.006 178.55 159.65 178.183 159.65 177.739L159.001 171.065C159.001 170.611 159.368 170.254 159.812 170.254C160.266 170.254 160.622 170.622 160.622 171.065L161.271 177.739C161.271 178.183 160.914 178.55 160.46 178.55Z" fill="white"/>
<path d="M160.622 171.065C160.622 170.611 160.255 170.254 159.812 170.254C159.693 170.254 159.585 170.276 159.487 170.319C159.779 170.449 159.974 170.73 159.974 171.065L160.622 177.739C160.622 178.074 160.417 178.355 160.136 178.485C160.233 178.528 160.341 178.55 160.46 178.55C160.914 178.55 161.271 178.182 161.271 177.739L160.622 171.065Z" fill="#C2ECE0"/>
<path d="M160.622 177.739L159.974 171.065C159.974 170.73 159.768 170.449 159.487 170.319C159.196 170.449 159.001 170.73 159.001 171.065L159.65 177.739C159.65 178.074 159.855 178.355 160.136 178.485C160.417 178.355 160.622 178.074 160.622 177.739Z" fill="white"/>
<path d="M173.063 179.037H136.961C136.507 179.037 136.15 178.669 136.15 178.226C136.15 177.771 136.518 177.415 136.961 177.415H173.052C174.079 177.415 174.868 177.133 175.376 176.592C176.198 175.716 176.144 174.386 176.133 174.375C176.133 174.332 176.133 174.278 176.133 174.235L180.035 143.646C180.057 143.473 180.132 143.311 180.241 143.192C180.284 143.138 180.781 142.51 182.056 139.817C182.37 139.157 182.456 138.638 182.294 138.4C182.089 138.097 181.429 138.043 181.213 138.054C181.203 138.054 181.181 138.054 181.17 138.054H169.81C166.729 138.054 166.394 139.59 166.383 139.655C166.372 139.741 166.351 139.806 166.308 139.882L164.546 143.83C164.34 144.23 163.854 144.392 163.454 144.198C163.054 143.992 162.892 143.505 163.087 143.105L164.805 139.244C164.967 138.616 165.81 136.431 169.799 136.431H181.159C181.429 136.421 182.932 136.41 183.656 137.502C184.164 138.259 184.132 139.276 183.537 140.52C182.5 142.716 181.916 143.668 181.635 144.068L177.765 174.375C177.776 174.775 177.733 176.473 176.565 177.717C175.744 178.593 174.555 179.037 173.063 179.037Z" fill="white"/>
<path d="M165.735 139.633C165.724 139.72 165.702 139.785 165.659 139.86L163.897 143.808C163.811 143.981 163.659 144.111 163.497 144.187C163.886 144.36 164.351 144.198 164.546 143.808L166.307 139.86C166.351 139.785 166.372 139.72 166.383 139.633C166.394 139.568 166.729 138.032 169.81 138.032H169.161C166.08 138.043 165.745 139.568 165.735 139.633Z" fill="#C2ECE0"/>
<path d="M183.667 137.481C182.943 136.389 181.44 136.399 181.17 136.41H180.716C181.213 136.421 182.391 136.551 183.018 137.481C183.526 138.238 183.494 139.255 182.899 140.499C181.862 142.694 181.278 143.646 180.997 144.046L177.127 174.354C177.138 174.754 177.095 176.452 175.927 177.696C175.095 178.583 173.917 179.037 172.415 179.037H173.063C174.566 179.037 175.744 178.583 176.576 177.696C177.754 176.441 177.787 174.743 177.776 174.354L181.645 144.046C181.937 143.646 182.51 142.694 183.548 140.499C184.142 139.266 184.175 138.249 183.667 137.481Z" fill="#C2ECE0"/>
<path d="M163.097 143.094L164.816 139.233C164.978 138.606 165.821 136.421 169.81 136.421H169.161C165.173 136.421 164.33 138.606 164.167 139.233L162.449 143.094C162.243 143.495 162.416 143.981 162.816 144.187C163.043 144.295 163.292 144.295 163.508 144.198C163.497 144.187 163.486 144.187 163.476 144.187C163.054 143.981 162.892 143.495 163.097 143.094Z" fill="#C2ECE0"/>
<path d="M177.127 174.354L180.997 144.046C181.289 143.646 181.862 142.694 182.9 140.499C183.483 139.255 183.526 138.238 183.018 137.481C182.402 136.551 181.213 136.421 180.716 136.41H180.522H169.81C165.821 136.41 164.978 138.595 164.816 139.222L163.097 143.084C162.892 143.484 163.065 143.971 163.465 144.176C163.476 144.187 163.486 144.187 163.497 144.187C163.67 144.111 163.811 143.982 163.897 143.808L165.659 139.861C165.702 139.785 165.724 139.72 165.735 139.633C165.746 139.568 166.081 138.033 169.161 138.033H169.81H180.543C180.554 138.033 180.576 138.033 180.586 138.033C180.619 138.033 180.662 138.033 180.705 138.033H181.192C181.203 138.033 181.224 138.033 181.235 138.033C181.451 138.022 182.121 138.087 182.316 138.379C182.478 138.617 182.392 139.136 182.078 139.796C180.803 142.489 180.305 143.116 180.262 143.17C180.143 143.3 180.068 143.452 180.057 143.625L176.155 174.213C176.155 174.256 176.144 174.311 176.155 174.354C176.155 174.365 176.209 175.695 175.398 176.571C174.879 177.123 174.101 177.393 173.074 177.393H172.426H136.961C136.507 177.393 136.15 177.761 136.15 178.204C136.15 178.659 136.518 179.016 136.961 179.016H172.404C173.906 179.016 175.085 178.561 175.917 177.674C177.095 176.452 177.138 174.754 177.127 174.354Z" fill="white"/>
<path d="M149.327 149.67L132.249 149.432L134.119 169.767C134.119 169.767 134.281 171.314 136.151 171.314C138.021 171.314 151.186 171.314 151.186 171.314L149.327 149.67ZM147.241 152.071L147.306 152.764C147.262 152.601 147.23 152.428 147.23 152.244C147.23 152.18 147.241 152.126 147.241 152.071ZM147.511 155.1L147.695 157.252C147.414 156.993 147.219 156.56 147.219 156.063C147.219 155.695 147.338 155.36 147.511 155.1ZM147.814 158.615L148.041 161.276C147.565 161.136 147.208 160.562 147.208 159.881C147.219 159.329 147.457 158.853 147.814 158.615ZM148.127 162.314L148.365 165.127C148.322 165.138 148.289 165.138 148.246 165.138C147.662 165.138 147.187 164.499 147.197 163.71C147.208 162.985 147.608 162.401 148.127 162.314ZM136.291 168.545L136.086 166.273C136.41 166.522 136.626 166.976 136.626 167.517C136.626 167.917 136.496 168.285 136.291 168.545ZM135.967 165.008L135.718 162.282C136.237 162.369 136.637 162.963 136.637 163.688C136.637 164.283 136.356 164.802 135.967 165.008ZM135.632 161.276L135.372 158.464C135.448 158.442 135.524 158.431 135.599 158.431C136.183 158.431 136.659 159.07 136.648 159.859C136.648 160.627 136.194 161.254 135.632 161.276ZM135.599 157.458C135.48 157.458 135.372 157.426 135.275 157.382L135.037 154.84C135.199 154.7 135.394 154.613 135.599 154.613C136.183 154.613 136.659 155.251 136.648 156.041C136.648 156.831 136.183 157.469 135.599 157.458ZM135.599 153.64C135.318 153.64 135.07 153.488 134.886 153.261L134.745 151.747L136.605 151.769C136.637 151.909 136.659 152.061 136.659 152.223C136.659 153.002 136.183 153.64 135.599 153.64ZM138.734 168.945C138.15 168.945 137.675 168.307 137.685 167.517C137.685 166.728 138.161 166.089 138.745 166.1C139.328 166.1 139.804 166.738 139.793 167.528C139.793 168.307 139.318 168.945 138.734 168.945ZM138.745 165.116C138.161 165.116 137.685 164.478 137.696 163.688C137.696 162.899 138.172 162.26 138.756 162.271C139.339 162.271 139.815 162.909 139.804 163.699C139.804 164.478 139.328 165.116 138.745 165.116ZM138.756 161.298C138.172 161.298 137.696 160.66 137.707 159.87C137.707 159.08 138.183 158.442 138.766 158.453C139.35 158.453 139.826 159.091 139.815 159.881C139.815 160.66 139.339 161.298 138.756 161.298ZM138.766 157.469C138.183 157.469 137.707 156.831 137.718 156.041C137.718 155.251 138.194 154.613 138.777 154.624C139.361 154.624 139.836 155.262 139.826 156.052C139.826 156.831 139.35 157.469 138.766 157.469ZM138.777 153.651C138.194 153.651 137.718 153.012 137.729 152.223C137.729 152.071 137.75 151.92 137.783 151.79L139.782 151.812C139.815 151.942 139.836 152.082 139.836 152.223C139.836 153.012 139.361 153.651 138.777 153.651ZM141.912 168.945C141.328 168.945 140.853 168.307 140.863 167.517C140.863 166.728 141.339 166.089 141.923 166.1C142.506 166.1 142.982 166.738 142.971 167.528C142.971 168.318 142.496 168.945 141.912 168.945ZM141.923 165.127C141.339 165.127 140.863 164.489 140.874 163.699C140.874 162.909 141.35 162.271 141.933 162.282C142.517 162.282 142.993 162.92 142.982 163.71C142.971 164.489 142.506 165.127 141.923 165.127ZM141.923 161.298C141.339 161.298 140.863 160.66 140.874 159.87C140.874 159.08 141.35 158.442 141.933 158.453C142.517 158.453 142.993 159.091 142.982 159.881C142.982 160.67 142.506 161.298 141.923 161.298ZM141.933 157.48C141.35 157.48 140.874 156.841 140.885 156.052C140.885 155.262 141.361 154.624 141.944 154.635C142.528 154.635 143.004 155.273 142.993 156.063C142.993 156.841 142.517 157.48 141.933 157.48ZM141.944 153.651C141.361 153.651 140.885 153.012 140.896 152.223C140.896 152.082 140.917 151.952 140.939 151.823L142.96 151.855C142.982 151.974 143.004 152.104 143.004 152.234C143.004 153.023 142.528 153.651 141.944 153.651ZM145.079 168.956C144.495 168.956 144.02 168.318 144.03 167.528C144.03 166.738 144.506 166.1 145.09 166.111C145.673 166.111 146.149 166.749 146.138 167.539C146.138 168.318 145.663 168.956 145.079 168.956ZM145.09 165.138C144.506 165.138 144.03 164.499 144.041 163.71C144.041 162.92 144.517 162.282 145.1 162.293C145.684 162.293 146.16 162.931 146.149 163.721C146.149 164.499 145.673 165.138 145.09 165.138ZM145.1 161.309C144.517 161.309 144.041 160.67 144.052 159.881C144.052 159.091 144.528 158.453 145.111 158.464C145.695 158.464 146.171 159.102 146.16 159.892C146.16 160.67 145.684 161.309 145.1 161.309ZM145.111 157.49C144.528 157.49 144.052 156.852 144.063 156.063C144.063 155.273 144.538 154.635 145.122 154.646C145.706 154.646 146.181 155.284 146.171 156.073C146.16 156.852 145.695 157.49 145.111 157.49ZM145.111 153.661C144.528 153.661 144.052 153.023 144.063 152.234C144.063 152.104 144.084 151.985 144.106 151.877L146.149 151.909C146.171 152.017 146.181 152.126 146.181 152.244C146.171 153.023 145.695 153.661 145.111 153.661ZM148.246 168.967C147.662 168.967 147.187 168.328 147.197 167.539C147.197 166.749 147.673 166.111 148.257 166.122C148.332 166.122 148.397 166.133 148.462 166.154L148.689 168.837C148.559 168.912 148.408 168.967 148.246 168.967Z" fill="#007EE3"/>
<path d="M157.088 144.922C158.223 146.728 159.455 147.972 161.498 148.156C161.703 147.734 162.082 147.442 162.525 147.453C162.925 147.453 163.282 147.702 163.487 148.07C164.471 147.907 165.433 147.605 166.34 147.204L166.967 142.51L156.764 144.587C156.883 144.652 156.991 144.771 157.088 144.922Z" fill="#36648E"/>
<path d="M149.327 149.671L151.197 171.314L177.128 171.065L180.382 143.895L149.327 149.671ZM161.779 149.671C161.595 150.093 161.26 150.374 160.871 150.374C160.59 150.374 160.331 150.222 160.136 149.974L161.779 149.671ZM152.548 160.53L152.419 158.994C152.57 159.243 152.667 159.557 152.667 159.903C152.656 160.13 152.613 160.346 152.548 160.53ZM152.256 157.199L152.051 154.787C152.419 155.014 152.678 155.512 152.667 156.085C152.667 156.539 152.505 156.939 152.256 157.199ZM151.943 153.597L151.759 151.531L152.462 151.401C152.591 151.639 152.678 151.931 152.678 152.256C152.678 152.883 152.364 153.413 151.943 153.597ZM155.034 168.999L153.835 169.01C153.553 168.751 153.37 168.318 153.381 167.831C153.381 167.042 153.856 166.404 154.44 166.414C155.024 166.414 155.499 167.053 155.488 167.842C155.488 168.318 155.305 168.74 155.034 168.999ZM154.44 165.43C153.856 165.43 153.381 164.792 153.391 164.002C153.391 163.213 153.867 162.575 154.451 162.585C155.034 162.585 155.51 163.224 155.499 164.013C155.499 164.803 155.024 165.441 154.44 165.43ZM154.451 161.612C153.867 161.612 153.391 160.974 153.402 160.184C153.402 159.395 153.878 158.756 154.461 158.767C155.045 158.767 155.521 159.405 155.51 160.195C155.499 160.974 155.034 161.612 154.451 161.612ZM154.451 157.794C153.867 157.794 153.391 157.156 153.402 156.366C153.402 155.576 153.878 154.938 154.461 154.949C155.045 154.949 155.521 155.587 155.51 156.377C155.51 157.156 155.034 157.794 154.451 157.794ZM154.461 153.965C153.878 153.965 153.402 153.327 153.413 152.537C153.413 151.747 153.889 151.109 154.472 151.12C155.056 151.12 155.532 151.758 155.521 152.548C155.521 153.327 155.045 153.965 154.461 153.965ZM158.245 168.967L156.969 168.978C156.71 168.718 156.548 168.307 156.548 167.842C156.548 167.053 157.023 166.414 157.607 166.425C158.191 166.425 158.666 167.063 158.655 167.853C158.655 168.307 158.493 168.707 158.245 168.967ZM157.607 165.441C157.023 165.441 156.548 164.803 156.558 164.013C156.558 163.224 157.034 162.585 157.618 162.596C158.201 162.596 158.677 163.234 158.666 164.024C158.666 164.803 158.191 165.441 157.607 165.441ZM157.618 161.623C157.034 161.623 156.558 160.985 156.569 160.195C156.569 159.405 157.045 158.767 157.628 158.778C158.212 158.778 158.688 159.416 158.677 160.206C158.677 160.985 158.201 161.623 157.618 161.623ZM157.628 157.794C157.045 157.794 156.569 157.156 156.58 156.366C156.58 155.576 157.056 154.938 157.639 154.949C158.223 154.949 158.699 155.587 158.688 156.377C158.688 157.166 158.212 157.794 157.628 157.794ZM157.639 153.976C157.056 153.976 156.58 153.337 156.591 152.548C156.591 151.758 157.066 151.12 157.65 151.131C158.234 151.131 158.709 151.769 158.699 152.559C158.688 153.337 158.223 153.976 157.639 153.976ZM161.444 168.935L160.104 168.945C159.866 168.686 159.715 168.286 159.715 167.842C159.715 167.053 160.19 166.414 160.774 166.425C161.358 166.425 161.833 167.063 161.822 167.853C161.833 168.286 161.682 168.675 161.444 168.935ZM160.774 165.452C160.19 165.452 159.715 164.814 159.725 164.024C159.725 163.234 160.201 162.596 160.785 162.607C161.368 162.607 161.844 163.245 161.833 164.035C161.833 164.814 161.358 165.452 160.774 165.452ZM160.785 161.623C160.201 161.623 159.725 160.985 159.736 160.195C159.736 159.405 160.212 158.767 160.796 158.778C161.379 158.778 161.855 159.416 161.844 160.206C161.844 160.995 161.368 161.634 160.785 161.623ZM160.796 157.805C160.212 157.805 159.736 157.166 159.747 156.377C159.747 155.587 160.223 154.949 160.806 154.96C161.39 154.96 161.866 155.598 161.855 156.388C161.855 157.166 161.379 157.805 160.796 157.805ZM160.806 153.976C160.223 153.976 159.747 153.337 159.758 152.548C159.758 151.758 160.233 151.12 160.817 151.131C161.401 151.131 161.876 151.769 161.866 152.559C161.866 153.348 161.39 153.986 160.806 153.976ZM164.654 168.902L163.249 168.913C163.033 168.653 162.893 168.275 162.893 167.853C162.893 167.063 163.368 166.425 163.952 166.436C164.535 166.436 165.011 167.074 165 167.864C165 168.275 164.86 168.643 164.654 168.902ZM163.952 165.463C163.368 165.463 162.893 164.824 162.903 164.035C162.903 163.245 163.379 162.607 163.963 162.618C164.546 162.618 165.022 163.256 165.011 164.046C165.011 164.824 164.535 165.463 163.952 165.463ZM163.963 161.634C163.379 161.634 162.903 160.995 162.914 160.206C162.914 159.416 163.39 158.778 163.973 158.789C164.557 158.789 165.033 159.427 165.022 160.217C165.011 160.995 164.546 161.634 163.963 161.634ZM163.963 157.815C163.379 157.815 162.903 157.177 162.914 156.388C162.914 155.598 163.39 154.96 163.973 154.971C164.557 154.971 165.033 155.609 165.022 156.398C165.022 157.177 164.546 157.815 163.963 157.815ZM163.973 153.986C163.39 153.986 162.914 153.348 162.925 152.559C162.925 151.769 163.401 151.131 163.984 151.142C164.568 151.142 165.044 151.78 165.033 152.569C165.033 153.348 164.557 153.986 163.973 153.986ZM164.038 150.385C163.584 150.385 163.195 149.984 163.044 149.433L165.087 149.054C165.054 149.801 164.59 150.385 164.038 150.385ZM167.854 168.881L166.384 168.891C166.178 168.632 166.06 168.264 166.06 167.864C166.06 167.074 166.535 166.436 167.119 166.447C167.703 166.447 168.178 167.085 168.167 167.875C168.167 168.264 168.048 168.621 167.854 168.881ZM167.119 165.463C166.535 165.463 166.06 164.824 166.07 164.035C166.07 163.245 166.546 162.607 167.13 162.618C167.713 162.618 168.189 163.256 168.178 164.046C168.178 164.835 167.703 165.463 167.119 165.463ZM167.13 161.644C166.546 161.644 166.07 161.006 166.081 160.217C166.081 159.427 166.557 158.789 167.14 158.8C167.724 158.8 168.2 159.438 168.189 160.227C168.189 161.006 167.713 161.644 167.13 161.644ZM167.14 157.815C166.557 157.815 166.081 157.177 166.092 156.388C166.092 155.598 166.568 154.96 167.151 154.971C167.735 154.971 168.211 155.609 168.2 156.398C168.2 157.188 167.724 157.815 167.14 157.815ZM167.151 153.997C166.568 153.997 166.092 153.359 166.103 152.569C166.103 151.78 166.578 151.142 167.162 151.153C167.746 151.153 168.221 151.791 168.211 152.58C168.2 153.359 167.735 153.997 167.151 153.997ZM167.205 150.395C166.622 150.395 166.146 149.757 166.157 148.968C166.157 148.935 166.168 148.892 166.168 148.859L168.2 148.481C168.243 148.632 168.265 148.805 168.265 148.978C168.265 149.757 167.789 150.395 167.205 150.395ZM171.215 168.848L169.691 168.859C169.508 168.599 169.4 168.253 169.4 167.875C169.4 167.085 169.875 166.447 170.459 166.458C171.043 166.458 171.518 167.096 171.507 167.885C171.507 168.253 171.388 168.588 171.215 168.848ZM170.448 165.473C169.864 165.473 169.389 164.835 169.4 164.046C169.4 163.256 169.875 162.618 170.459 162.629C171.043 162.629 171.518 163.267 171.507 164.056C171.507 164.835 171.032 165.473 170.448 165.473ZM170.459 161.655C169.875 161.655 169.4 161.017 169.41 160.227C169.41 159.438 169.886 158.8 170.47 158.811C171.053 158.811 171.529 159.449 171.518 160.238C171.518 161.017 171.043 161.655 170.459 161.655ZM170.47 157.826C169.886 157.826 169.41 157.188 169.421 156.398C169.421 155.609 169.897 154.971 170.48 154.982C171.064 154.982 171.54 155.62 171.529 156.409C171.529 157.188 171.053 157.826 170.47 157.826ZM170.48 154.008C169.897 154.008 169.421 153.37 169.432 152.58C169.432 151.791 169.908 151.153 170.491 151.163C171.075 151.163 171.551 151.802 171.54 152.591C171.54 153.37 171.064 154.008 170.48 154.008ZM170.535 150.406C169.951 150.406 169.475 149.768 169.486 148.978C169.486 148.697 169.551 148.427 169.659 148.211L171.237 147.918C171.453 148.178 171.594 148.557 171.594 148.989C171.594 149.768 171.118 150.406 170.535 150.406ZM174.047 168.816L172.534 168.826C172.35 168.567 172.232 168.221 172.232 167.831C172.232 167.042 172.707 166.404 173.291 166.414C173.874 166.414 174.35 167.053 174.339 167.842C174.35 168.221 174.231 168.567 174.047 168.816ZM173.302 165.43C172.718 165.43 172.242 164.792 172.253 164.002C172.253 163.213 172.729 162.575 173.312 162.585C173.896 162.585 174.372 163.224 174.361 164.013C174.361 164.803 173.885 165.441 173.302 165.43ZM173.302 161.612C172.718 161.612 172.242 160.974 172.253 160.184C172.253 159.395 172.729 158.756 173.312 158.767C173.896 158.767 174.372 159.405 174.361 160.195C174.361 160.974 173.885 161.612 173.302 161.612ZM173.312 157.794C172.729 157.794 172.253 157.156 172.264 156.366C172.264 155.576 172.74 154.938 173.323 154.949C173.907 154.949 174.383 155.587 174.372 156.377C174.372 157.156 173.896 157.794 173.312 157.794ZM173.323 153.965C172.74 153.965 172.264 153.327 172.275 152.537C172.275 151.747 172.75 151.109 173.334 151.12C173.918 151.12 174.393 151.758 174.383 152.548C174.383 153.327 173.907 153.965 173.323 153.965ZM173.388 150.363C172.804 150.363 172.329 149.725 172.34 148.935C172.34 148.265 172.686 147.702 173.15 147.562L173.323 147.529C173.345 147.529 173.366 147.518 173.388 147.518C173.972 147.518 174.447 148.156 174.437 148.946C174.437 149.725 173.972 150.363 173.388 150.363ZM175.582 164.792C175.474 164.565 175.409 164.305 175.409 164.013C175.409 163.57 175.561 163.18 175.799 162.921L175.582 164.792ZM175.982 161.45C175.647 161.212 175.42 160.736 175.42 160.195C175.42 159.492 175.799 158.919 176.296 158.8L175.982 161.45ZM176.425 157.783C175.874 157.74 175.431 157.123 175.431 156.366C175.431 155.576 175.907 154.938 176.49 154.949C176.577 154.949 176.674 154.971 176.75 155.003L176.425 157.783ZM176.89 153.867C176.771 153.932 176.631 153.976 176.49 153.976C175.907 153.976 175.431 153.337 175.442 152.548C175.442 151.758 175.917 151.12 176.501 151.131C176.761 151.131 176.998 151.261 177.182 151.477L176.89 153.867ZM176.555 150.374C175.971 150.374 175.496 149.736 175.507 148.946C175.507 148.156 175.982 147.518 176.566 147.529C177.02 147.529 177.398 147.908 177.55 148.438L177.377 149.844C177.182 150.157 176.89 150.374 176.555 150.374Z" fill="#5D95E4"/>
<path d="M149.327 149.67L132.249 149.432L134.119 169.767C134.119 169.767 134.281 171.314 136.151 171.314C138.021 171.314 151.186 171.314 151.186 171.314L149.327 149.67ZM147.241 152.071L147.306 152.764C147.262 152.601 147.23 152.428 147.23 152.244C147.23 152.18 147.241 152.126 147.241 152.071ZM147.511 155.1L147.695 157.252C147.414 156.993 147.219 156.56 147.219 156.063C147.219 155.695 147.338 155.36 147.511 155.1ZM147.814 158.615L148.041 161.276C147.565 161.136 147.208 160.562 147.208 159.881C147.219 159.329 147.457 158.853 147.814 158.615ZM148.127 162.314L148.365 165.127C148.322 165.138 148.289 165.138 148.246 165.138C147.662 165.138 147.187 164.499 147.197 163.71C147.208 162.985 147.608 162.401 148.127 162.314ZM136.291 168.545L136.086 166.273C136.41 166.522 136.626 166.976 136.626 167.517C136.626 167.917 136.496 168.285 136.291 168.545ZM135.967 165.008L135.718 162.282C136.237 162.369 136.637 162.963 136.637 163.688C136.637 164.283 136.356 164.802 135.967 165.008ZM135.632 161.276L135.372 158.464C135.448 158.442 135.524 158.431 135.599 158.431C136.183 158.431 136.659 159.07 136.648 159.859C136.648 160.627 136.194 161.254 135.632 161.276ZM135.599 157.458C135.48 157.458 135.372 157.426 135.275 157.382L135.037 154.84C135.199 154.7 135.394 154.613 135.599 154.613C136.183 154.613 136.659 155.251 136.648 156.041C136.648 156.831 136.183 157.469 135.599 157.458ZM135.599 153.64C135.318 153.64 135.07 153.488 134.886 153.261L134.745 151.747L136.605 151.769C136.637 151.909 136.659 152.061 136.659 152.223C136.659 153.002 136.183 153.64 135.599 153.64ZM138.734 168.945C138.15 168.945 137.675 168.307 137.685 167.517C137.685 166.728 138.161 166.089 138.745 166.1C139.328 166.1 139.804 166.738 139.793 167.528C139.793 168.307 139.318 168.945 138.734 168.945ZM138.745 165.116C138.161 165.116 137.685 164.478 137.696 163.688C137.696 162.899 138.172 162.26 138.756 162.271C139.339 162.271 139.815 162.909 139.804 163.699C139.804 164.478 139.328 165.116 138.745 165.116ZM138.756 161.298C138.172 161.298 137.696 160.66 137.707 159.87C137.707 159.08 138.183 158.442 138.766 158.453C139.35 158.453 139.826 159.091 139.815 159.881C139.815 160.66 139.339 161.298 138.756 161.298ZM138.766 157.469C138.183 157.469 137.707 156.831 137.718 156.041C137.718 155.251 138.194 154.613 138.777 154.624C139.361 154.624 139.836 155.262 139.826 156.052C139.826 156.831 139.35 157.469 138.766 157.469ZM138.777 153.651C138.194 153.651 137.718 153.012 137.729 152.223C137.729 152.071 137.75 151.92 137.783 151.79L139.782 151.812C139.815 151.942 139.836 152.082 139.836 152.223C139.836 153.012 139.361 153.651 138.777 153.651ZM141.912 168.945C141.328 168.945 140.853 168.307 140.863 167.517C140.863 166.728 141.339 166.089 141.923 166.1C142.506 166.1 142.982 166.738 142.971 167.528C142.971 168.318 142.496 168.945 141.912 168.945ZM141.923 165.127C141.339 165.127 140.863 164.489 140.874 163.699C140.874 162.909 141.35 162.271 141.933 162.282C142.517 162.282 142.993 162.92 142.982 163.71C142.971 164.489 142.506 165.127 141.923 165.127ZM141.923 161.298C141.339 161.298 140.863 160.66 140.874 159.87C140.874 159.08 141.35 158.442 141.933 158.453C142.517 158.453 142.993 159.091 142.982 159.881C142.982 160.67 142.506 161.298 141.923 161.298ZM141.933 157.48C141.35 157.48 140.874 156.841 140.885 156.052C140.885 155.262 141.361 154.624 141.944 154.635C142.528 154.635 143.004 155.273 142.993 156.063C142.993 156.841 142.517 157.48 141.933 157.48ZM141.944 153.651C141.361 153.651 140.885 153.012 140.896 152.223C140.896 152.082 140.917 151.952 140.939 151.823L142.96 151.855C142.982 151.974 143.004 152.104 143.004 152.234C143.004 153.023 142.528 153.651 141.944 153.651ZM145.079 168.956C144.495 168.956 144.02 168.318 144.03 167.528C144.03 166.738 144.506 166.1 145.09 166.111C145.673 166.111 146.149 166.749 146.138 167.539C146.138 168.318 145.663 168.956 145.079 168.956ZM145.09 165.138C144.506 165.138 144.03 164.499 144.041 163.71C144.041 162.92 144.517 162.282 145.1 162.293C145.684 162.293 146.16 162.931 146.149 163.721C146.149 164.499 145.673 165.138 145.09 165.138ZM145.1 161.309C144.517 161.309 144.041 160.67 144.052 159.881C144.052 159.091 144.528 158.453 145.111 158.464C145.695 158.464 146.171 159.102 146.16 159.892C146.16 160.67 145.684 161.309 145.1 161.309ZM145.111 157.49C144.528 157.49 144.052 156.852 144.063 156.063C144.063 155.273 144.538 154.635 145.122 154.646C145.706 154.646 146.181 155.284 146.171 156.073C146.16 156.852 145.695 157.49 145.111 157.49ZM145.111 153.661C144.528 153.661 144.052 153.023 144.063 152.234C144.063 152.104 144.084 151.985 144.106 151.877L146.149 151.909C146.171 152.017 146.181 152.126 146.181 152.244C146.171 153.023 145.695 153.661 145.111 153.661ZM148.246 168.967C147.662 168.967 147.187 168.328 147.197 167.539C147.197 166.749 147.673 166.111 148.257 166.122C148.332 166.122 148.397 166.133 148.462 166.154L148.689 168.837C148.559 168.912 148.408 168.967 148.246 168.967Z" fill="#3F6E99"/>
<path d="M149.327 149.671L151.197 171.314L177.128 171.065L180.382 143.895L149.327 149.671ZM161.779 149.671C161.595 150.093 161.26 150.374 160.871 150.374C160.59 150.374 160.331 150.222 160.136 149.974L161.779 149.671ZM152.548 160.53L152.419 158.994C152.57 159.243 152.667 159.557 152.667 159.903C152.656 160.13 152.613 160.346 152.548 160.53ZM152.256 157.199L152.051 154.787C152.419 155.014 152.678 155.512 152.667 156.085C152.667 156.539 152.505 156.939 152.256 157.199ZM151.943 153.597L151.759 151.531L152.462 151.401C152.591 151.639 152.678 151.931 152.678 152.256C152.678 152.883 152.364 153.413 151.943 153.597ZM155.034 168.999L153.835 169.01C153.553 168.751 153.37 168.318 153.381 167.831C153.381 167.042 153.856 166.404 154.44 166.414C155.024 166.414 155.499 167.053 155.488 167.842C155.488 168.318 155.305 168.74 155.034 168.999ZM154.44 165.43C153.856 165.43 153.381 164.792 153.391 164.002C153.391 163.213 153.867 162.575 154.451 162.585C155.034 162.585 155.51 163.224 155.499 164.013C155.499 164.803 155.024 165.441 154.44 165.43ZM154.451 161.612C153.867 161.612 153.391 160.974 153.402 160.184C153.402 159.395 153.878 158.756 154.461 158.767C155.045 158.767 155.521 159.405 155.51 160.195C155.499 160.974 155.034 161.612 154.451 161.612ZM154.451 157.794C153.867 157.794 153.391 157.156 153.402 156.366C153.402 155.576 153.878 154.938 154.461 154.949C155.045 154.949 155.521 155.587 155.51 156.377C155.51 157.156 155.034 157.794 154.451 157.794ZM154.461 153.965C153.878 153.965 153.402 153.327 153.413 152.537C153.413 151.747 153.889 151.109 154.472 151.12C155.056 151.12 155.532 151.758 155.521 152.548C155.521 153.327 155.045 153.965 154.461 153.965ZM158.245 168.967L156.969 168.978C156.71 168.718 156.548 168.307 156.548 167.842C156.548 167.053 157.023 166.414 157.607 166.425C158.191 166.425 158.666 167.063 158.655 167.853C158.655 168.307 158.493 168.707 158.245 168.967ZM157.607 165.441C157.023 165.441 156.548 164.803 156.558 164.013C156.558 163.224 157.034 162.585 157.618 162.596C158.201 162.596 158.677 163.234 158.666 164.024C158.666 164.803 158.191 165.441 157.607 165.441ZM157.618 161.623C157.034 161.623 156.558 160.985 156.569 160.195C156.569 159.405 157.045 158.767 157.628 158.778C158.212 158.778 158.688 159.416 158.677 160.206C158.677 160.985 158.201 161.623 157.618 161.623ZM157.628 157.794C157.045 157.794 156.569 157.156 156.58 156.366C156.58 155.576 157.056 154.938 157.639 154.949C158.223 154.949 158.699 155.587 158.688 156.377C158.688 157.166 158.212 157.794 157.628 157.794ZM157.639 153.976C157.056 153.976 156.58 153.337 156.591 152.548C156.591 151.758 157.066 151.12 157.65 151.131C158.234 151.131 158.709 151.769 158.699 152.559C158.688 153.337 158.223 153.976 157.639 153.976ZM161.444 168.935L160.104 168.945C159.866 168.686 159.715 168.286 159.715 167.842C159.715 167.053 160.19 166.414 160.774 166.425C161.358 166.425 161.833 167.063 161.822 167.853C161.833 168.286 161.682 168.675 161.444 168.935ZM160.774 165.452C160.19 165.452 159.715 164.814 159.725 164.024C159.725 163.234 160.201 162.596 160.785 162.607C161.368 162.607 161.844 163.245 161.833 164.035C161.833 164.814 161.358 165.452 160.774 165.452ZM160.785 161.623C160.201 161.623 159.725 160.985 159.736 160.195C159.736 159.405 160.212 158.767 160.796 158.778C161.379 158.778 161.855 159.416 161.844 160.206C161.844 160.995 161.368 161.634 160.785 161.623ZM160.796 157.805C160.212 157.805 159.736 157.166 159.747 156.377C159.747 155.587 160.223 154.949 160.806 154.96C161.39 154.96 161.866 155.598 161.855 156.388C161.855 157.166 161.379 157.805 160.796 157.805ZM160.806 153.976C160.223 153.976 159.747 153.337 159.758 152.548C159.758 151.758 160.233 151.12 160.817 151.131C161.401 151.131 161.876 151.769 161.866 152.559C161.866 153.348 161.39 153.986 160.806 153.976ZM164.654 168.902L163.249 168.913C163.033 168.653 162.893 168.275 162.893 167.853C162.893 167.063 163.368 166.425 163.952 166.436C164.535 166.436 165.011 167.074 165 167.864C165 168.275 164.86 168.643 164.654 168.902ZM163.952 165.463C163.368 165.463 162.893 164.824 162.903 164.035C162.903 163.245 163.379 162.607 163.963 162.618C164.546 162.618 165.022 163.256 165.011 164.046C165.011 164.824 164.535 165.463 163.952 165.463ZM163.963 161.634C163.379 161.634 162.903 160.995 162.914 160.206C162.914 159.416 163.39 158.778 163.973 158.789C164.557 158.789 165.033 159.427 165.022 160.217C165.011 160.995 164.546 161.634 163.963 161.634ZM163.963 157.815C163.379 157.815 162.903 157.177 162.914 156.388C162.914 155.598 163.39 154.96 163.973 154.971C164.557 154.971 165.033 155.609 165.022 156.398C165.022 157.177 164.546 157.815 163.963 157.815ZM163.973 153.986C163.39 153.986 162.914 153.348 162.925 152.559C162.925 151.769 163.401 151.131 163.984 151.142C164.568 151.142 165.044 151.78 165.033 152.569C165.033 153.348 164.557 153.986 163.973 153.986ZM164.038 150.385C163.584 150.385 163.195 149.984 163.044 149.433L165.087 149.054C165.054 149.801 164.59 150.385 164.038 150.385ZM167.854 168.881L166.384 168.891C166.178 168.632 166.06 168.264 166.06 167.864C166.06 167.074 166.535 166.436 167.119 166.447C167.703 166.447 168.178 167.085 168.167 167.875C168.167 168.264 168.048 168.621 167.854 168.881ZM167.119 165.463C166.535 165.463 166.06 164.824 166.07 164.035C166.07 163.245 166.546 162.607 167.13 162.618C167.713 162.618 168.189 163.256 168.178 164.046C168.178 164.835 167.703 165.463 167.119 165.463ZM167.13 161.644C166.546 161.644 166.07 161.006 166.081 160.217C166.081 159.427 166.557 158.789 167.14 158.8C167.724 158.8 168.2 159.438 168.189 160.227C168.189 161.006 167.713 161.644 167.13 161.644ZM167.14 157.815C166.557 157.815 166.081 157.177 166.092 156.388C166.092 155.598 166.568 154.96 167.151 154.971C167.735 154.971 168.211 155.609 168.2 156.398C168.2 157.188 167.724 157.815 167.14 157.815ZM167.151 153.997C166.568 153.997 166.092 153.359 166.103 152.569C166.103 151.78 166.578 151.142 167.162 151.153C167.746 151.153 168.221 151.791 168.211 152.58C168.2 153.359 167.735 153.997 167.151 153.997ZM167.205 150.395C166.622 150.395 166.146 149.757 166.157 148.968C166.157 148.935 166.168 148.892 166.168 148.859L168.2 148.481C168.243 148.632 168.265 148.805 168.265 148.978C168.265 149.757 167.789 150.395 167.205 150.395ZM171.215 168.848L169.691 168.859C169.508 168.599 169.4 168.253 169.4 167.875C169.4 167.085 169.875 166.447 170.459 166.458C171.043 166.458 171.518 167.096 171.507 167.885C171.507 168.253 171.388 168.588 171.215 168.848ZM170.448 165.473C169.864 165.473 169.389 164.835 169.4 164.046C169.4 163.256 169.875 162.618 170.459 162.629C171.043 162.629 171.518 163.267 171.507 164.056C171.507 164.835 171.032 165.473 170.448 165.473ZM170.459 161.655C169.875 161.655 169.4 161.017 169.41 160.227C169.41 159.438 169.886 158.8 170.47 158.811C171.053 158.811 171.529 159.449 171.518 160.238C171.518 161.017 171.043 161.655 170.459 161.655ZM170.47 157.826C169.886 157.826 169.41 157.188 169.421 156.398C169.421 155.609 169.897 154.971 170.48 154.982C171.064 154.982 171.54 155.62 171.529 156.409C171.529 157.188 171.053 157.826 170.47 157.826ZM170.48 154.008C169.897 154.008 169.421 153.37 169.432 152.58C169.432 151.791 169.908 151.153 170.491 151.163C171.075 151.163 171.551 151.802 171.54 152.591C171.54 153.37 171.064 154.008 170.48 154.008ZM170.535 150.406C169.951 150.406 169.475 149.768 169.486 148.978C169.486 148.697 169.551 148.427 169.659 148.211L171.237 147.918C171.453 148.178 171.594 148.557 171.594 148.989C171.594 149.768 171.118 150.406 170.535 150.406ZM174.047 168.816L172.534 168.826C172.35 168.567 172.232 168.221 172.232 167.831C172.232 167.042 172.707 166.404 173.291 166.414C173.874 166.414 174.35 167.053 174.339 167.842C174.35 168.221 174.231 168.567 174.047 168.816ZM173.302 165.43C172.718 165.43 172.242 164.792 172.253 164.002C172.253 163.213 172.729 162.575 173.312 162.585C173.896 162.585 174.372 163.224 174.361 164.013C174.361 164.803 173.885 165.441 173.302 165.43ZM173.302 161.612C172.718 161.612 172.242 160.974 172.253 160.184C172.253 159.395 172.729 158.756 173.312 158.767C173.896 158.767 174.372 159.405 174.361 160.195C174.361 160.974 173.885 161.612 173.302 161.612ZM173.312 157.794C172.729 157.794 172.253 157.156 172.264 156.366C172.264 155.576 172.74 154.938 173.323 154.949C173.907 154.949 174.383 155.587 174.372 156.377C174.372 157.156 173.896 157.794 173.312 157.794ZM173.323 153.965C172.74 153.965 172.264 153.327 172.275 152.537C172.275 151.747 172.75 151.109 173.334 151.12C173.918 151.12 174.393 151.758 174.383 152.548C174.383 153.327 173.907 153.965 173.323 153.965ZM173.388 150.363C172.804 150.363 172.329 149.725 172.34 148.935C172.34 148.265 172.686 147.702 173.15 147.562L173.323 147.529C173.345 147.529 173.366 147.518 173.388 147.518C173.972 147.518 174.447 148.156 174.437 148.946C174.437 149.725 173.972 150.363 173.388 150.363ZM175.582 164.792C175.474 164.565 175.409 164.305 175.409 164.013C175.409 163.57 175.561 163.18 175.799 162.921L175.582 164.792ZM175.982 161.45C175.647 161.212 175.42 160.736 175.42 160.195C175.42 159.492 175.799 158.919 176.296 158.8L175.982 161.45ZM176.425 157.783C175.874 157.74 175.431 157.123 175.431 156.366C175.431 155.576 175.907 154.938 176.49 154.949C176.577 154.949 176.674 154.971 176.75 155.003L176.425 157.783ZM176.89 153.867C176.771 153.932 176.631 153.976 176.49 153.976C175.907 153.976 175.431 153.337 175.442 152.548C175.442 151.758 175.917 151.12 176.501 151.131C176.761 151.131 176.998 151.261 177.182 151.477L176.89 153.867ZM176.555 150.374C175.971 150.374 175.496 149.736 175.507 148.946C175.507 148.156 175.982 147.518 176.566 147.529C177.02 147.529 177.398 147.908 177.55 148.438L177.377 149.844C177.182 150.157 176.89 150.374 176.555 150.374Z" fill="#2B5A85"/>
<path d="M171.629 138.196C172.159 138.434 172.785 138.207 173.023 137.677L174.147 135.222C174.385 134.692 174.158 134.065 173.629 133.827C173.099 133.589 172.472 133.816 172.234 134.346L171.11 136.801C170.861 137.331 171.099 137.958 171.629 138.196Z" fill="#FFA87B"/>
<path d="M172.983 131.347C172.256 133.818 170.948 134.724 170.948 134.724L173.564 136.531C173.564 136.531 175.017 135.897 175.017 130.33C175.017 129.357 173.564 129.371 172.983 131.347Z" fill="#FFD101"/>
<path d="M92.3318 112.294C91.4143 112.294 90.6743 111.554 90.6743 110.636C90.6743 109.719 91.4143 108.979 92.3318 108.979H156.884C157.802 108.979 158.542 109.719 158.542 110.636C158.542 111.554 157.802 112.294 156.884 112.294H92.3318Z" fill="#6197E5"/>
<path d="M156.528 110.458V14.4438H154.486C154.486 14.4734 154.486 14.503 154.486 14.5622C154.486 15.5094 153.717 16.3085 152.74 16.3085C151.793 16.3085 150.994 15.539 150.994 14.5622C150.994 14.5326 150.994 14.503 150.994 14.4438H149.366C149.366 14.4734 149.366 14.503 149.366 14.5622C149.366 15.5094 148.596 16.3085 147.62 16.3085C146.672 16.3085 145.873 15.539 145.873 14.5622C145.873 14.5326 145.873 14.503 145.873 14.4438H144.245C144.245 14.4734 144.245 14.503 144.245 14.5622C144.245 15.5094 143.476 16.3085 142.499 16.3085C141.552 16.3085 140.753 15.539 140.753 14.5622C140.753 14.5326 140.753 14.503 140.753 14.4438H139.125C139.125 14.4734 139.125 14.503 139.125 14.5622C139.125 15.5094 138.355 16.3085 137.379 16.3085C136.432 16.3085 135.633 15.539 135.633 14.5622C135.633 14.5326 135.633 14.503 135.633 14.4438H134.005C134.005 14.4734 134.005 14.503 134.005 14.5622C134.005 15.5094 133.235 16.3085 132.258 16.3085C131.311 16.3085 130.512 15.539 130.512 14.5622C130.512 14.5326 130.512 14.503 130.512 14.4438H128.884C128.884 14.4734 128.884 14.503 128.884 14.5622C128.884 15.5094 128.115 16.3085 127.138 16.3085C126.191 16.3085 125.392 15.539 125.392 14.5622C125.392 14.5326 125.392 14.503 125.392 14.4438H123.971C123.971 14.4734 123.971 14.503 123.971 14.5622C123.971 15.5094 123.202 16.3085 122.225 16.3085C121.278 16.3085 120.479 15.539 120.479 14.5622C120.479 14.5326 120.479 14.503 120.479 14.4438H118.851C118.851 14.4734 118.851 14.503 118.851 14.5622C118.851 15.5094 118.081 16.3085 117.104 16.3085C116.157 16.3085 115.358 15.539 115.358 14.5622C115.358 14.5326 115.358 14.503 115.358 14.4438H113.73C113.73 14.4734 113.73 14.503 113.73 14.5622C113.73 15.5094 112.961 16.3085 111.984 16.3085C111.037 16.3085 110.238 15.539 110.238 14.5622C110.238 14.5326 110.238 14.503 110.238 14.4438H108.61C108.61 14.4734 108.61 14.503 108.61 14.5622C108.61 15.5094 107.84 16.3085 106.864 16.3085C105.917 16.3085 105.117 15.539 105.117 14.5622C105.117 14.5326 105.117 14.503 105.117 14.4438H103.49C103.49 14.4734 103.49 14.503 103.49 14.5622C103.49 15.5094 102.72 16.3085 101.743 16.3085C100.796 16.3085 99.997 15.539 99.997 14.5622C99.997 14.5326 99.997 14.503 99.997 14.4438H98.3691C98.3691 14.4734 98.3691 14.503 98.3691 14.5622C98.3691 15.5094 97.5996 16.3085 96.6229 16.3085C95.6758 16.3085 94.8766 15.539 94.8766 14.5622C94.8766 14.5326 94.8766 14.503 94.8766 14.4438H92.7456V110.458H156.528Z" fill="white"/>
<path d="M92.6573 110.459V14.2368H94.5515C94.5515 15.2431 95.3802 16.0718 96.4162 16.0718C97.4225 16.0718 98.2808 15.2431 98.2808 14.2368H99.6423C99.6423 15.2431 100.471 16.0718 101.507 16.0718C102.513 16.0718 103.372 15.2431 103.372 14.2368H104.733C104.733 15.2431 105.562 16.0718 106.598 16.0718C107.604 16.0718 108.462 15.2431 108.462 14.2368H109.824C109.824 15.2431 110.653 16.0718 111.689 16.0718C112.695 16.0718 113.553 15.2431 113.553 14.2368H114.915C114.915 15.2431 115.743 16.0718 116.779 16.0718C117.786 16.0718 118.644 15.2431 118.644 14.2368H120.005C120.005 15.2431 120.834 16.0718 121.87 16.0718C122.876 16.0718 123.735 15.2431 123.735 14.2368H125.096C125.096 15.2431 125.925 16.0718 126.961 16.0718C127.967 16.0718 128.826 15.2431 128.826 14.2368H130.187C130.187 15.2431 131.016 16.0718 132.052 16.0718C133.058 16.0718 133.916 15.2431 133.916 14.2368H135.278C135.278 15.2431 136.107 16.0718 137.142 16.0718C138.149 16.0718 139.007 15.2431 139.007 14.2368H140.369C140.369 15.2431 141.197 16.0718 142.233 16.0718C143.24 16.0718 144.098 15.2431 144.098 14.2368H145.459C145.459 15.2431 146.288 16.0718 147.324 16.0718C148.33 16.0718 149.189 15.2431 149.189 14.2368H150.55C150.55 15.2431 151.379 16.0718 152.415 16.0718C153.421 16.0718 154.279 15.2431 154.279 14.2368H156.055V110.459H156.292V14H154.131L154.013 14.0296V14.148C154.013 14.1776 154.013 14.2072 154.013 14.2368C154.013 15.1247 153.273 15.8646 152.385 15.8646C151.497 15.8646 150.757 15.1247 150.757 14.2368C150.757 14.2072 150.757 14.1776 150.757 14.148V14.0296H149.011L148.893 14.0592V14.1776C148.893 14.2072 148.893 14.2368 148.893 14.2368C148.893 15.1247 148.153 15.8646 147.265 15.8646C146.377 15.8646 145.637 15.1247 145.637 14.2368C145.637 14.2072 145.637 14.1776 145.637 14.148V14.0296H143.891L143.772 14.0592V14.1776C143.772 14.2072 143.772 14.2368 143.772 14.2664C143.772 15.1543 143.032 15.8942 142.144 15.8942C141.257 15.8942 140.517 15.1543 140.517 14.2664C140.517 14.2368 140.517 14.2072 140.517 14.1776V14.0592H138.77L138.652 14.0888V14.2072C138.652 14.2368 138.652 14.2664 138.652 14.2664C138.652 15.1543 137.912 15.8942 137.024 15.8942C136.136 15.8942 135.396 15.1543 135.396 14.2664C135.396 14.2368 135.396 14.2072 135.396 14.1776V14.0592H133.739L133.62 14.0888V14.2072C133.62 14.2368 133.62 14.2664 133.62 14.296C133.62 15.1839 132.88 15.9238 131.992 15.9238C131.105 15.9238 130.365 15.1839 130.365 14.296C130.365 14.2664 130.365 14.2368 130.365 14.2072V14.0888H128.618L128.5 14.1184V14.2368C128.5 14.2664 128.5 14.296 128.5 14.296C128.5 15.1839 127.76 15.9238 126.872 15.9238C125.984 15.9238 125.244 15.1839 125.244 14.296C125.244 14.2664 125.244 14.2368 125.244 14.2072V14.0888H123.38V14.2072V14.2368C123.38 14.2664 123.38 14.296 123.38 14.296C123.38 15.1839 122.64 15.9238 121.752 15.9238C120.864 15.9238 120.124 15.1839 120.124 14.296C120.124 14.2664 120.124 14.2368 120.124 14.2368V14.0888H118.378L118.259 14.1184V14.2368C118.259 14.2664 118.259 14.296 118.259 14.3256C118.259 15.2135 117.519 15.9534 116.631 15.9534C115.743 15.9534 115.003 15.2135 115.003 14.3256C115.003 14.296 115.003 14.2664 115.003 14.2368V14.1184H113.139V14.2368V14.2664C113.139 14.296 113.139 14.3256 113.139 14.3256C113.139 15.2135 112.399 15.9534 111.511 15.9534C110.623 15.9534 109.883 15.2135 109.883 14.3256C109.883 14.296 109.883 14.2664 109.883 14.2664V14.1184H108.137L108.018 14.148V14.2664C108.018 14.296 108.018 14.3256 108.018 14.3552C108.018 15.2431 107.278 15.983 106.391 15.983C105.503 15.983 104.763 15.2431 104.763 14.3552C104.763 14.3256 104.763 14.296 104.763 14.2664V14.148H102.898V14.2664V14.296C102.898 14.3256 102.898 14.3552 102.898 14.3552C102.898 15.2431 102.158 15.983 101.27 15.983C100.382 15.983 99.6423 15.2431 99.6423 14.3552C99.6423 14.3256 99.6423 14.296 99.6423 14.296V14.148H97.896L97.7777 14.1776V14.296C97.7777 14.3256 97.7777 14.3552 97.7777 14.3848C97.7777 15.2727 97.0377 16.0126 96.1498 16.0126C95.2619 16.0126 94.5219 15.2727 94.5219 14.3848C94.5219 14.3552 94.5219 14.3256 94.5219 14.296V14.1776H92.1245V110.636H92.6573V110.459Z" fill="white"/>
<path d="M156.114 110.459V14.1192H154.072C154.072 14.1488 154.072 14.1784 154.072 14.2376C154.072 15.1847 153.303 15.9838 152.326 15.9838C151.379 15.9838 150.58 15.2143 150.58 14.2376C150.58 14.208 150.58 14.1784 150.58 14.1192H148.952C148.952 14.1488 148.952 14.1784 148.952 14.2376C148.952 15.1847 148.182 15.9838 147.206 15.9838C146.258 15.9838 145.459 15.2143 145.459 14.2376C145.459 14.208 145.459 14.1784 145.459 14.1192H143.831C143.831 14.1488 143.831 14.1784 143.831 14.2376C143.831 15.1847 143.062 15.9838 142.085 15.9838C141.138 15.9838 140.339 15.2143 140.339 14.2376C140.339 14.208 140.339 14.1784 140.339 14.1192H138.711C138.711 14.1488 138.711 14.1784 138.711 14.2376C138.711 15.1847 137.942 15.9838 136.965 15.9838C136.018 15.9838 135.219 15.2143 135.219 14.2376C135.219 14.208 135.219 14.1784 135.219 14.1192H133.739C133.739 14.1488 133.739 14.1784 133.739 14.2376C133.739 15.1847 132.969 15.9838 131.992 15.9838C131.045 15.9838 130.246 15.2143 130.246 14.2376C130.246 14.208 130.246 14.1784 130.246 14.1192H128.618C128.618 14.1488 128.618 14.1784 128.618 14.2376C128.618 15.1847 127.849 15.9838 126.872 15.9838C125.925 15.9838 125.126 15.2143 125.126 14.2376C125.126 14.208 125.126 14.1784 125.126 14.1192H123.498C123.498 14.1488 123.498 14.1784 123.498 14.2376C123.498 15.1847 122.728 15.9838 121.752 15.9838C120.805 15.9838 120.005 15.2143 120.005 14.2376C120.005 14.208 120.005 14.1784 120.005 14.1192H118.378C118.378 14.1488 118.378 14.1784 118.378 14.2376C118.378 15.1847 117.608 15.9838 116.631 15.9838C115.684 15.9838 114.885 15.2143 114.885 14.2376C114.885 14.208 114.885 14.1784 114.885 14.1192H113.257C113.257 14.1488 113.257 14.1784 113.257 14.2376C113.257 15.1847 112.488 15.9838 111.511 15.9838C110.564 15.9838 109.765 15.2143 109.765 14.2376C109.765 14.208 109.765 14.1784 109.765 14.1192H108.137C108.137 14.1488 108.137 14.1784 108.137 14.2376C108.137 15.1847 107.367 15.9838 106.391 15.9838C105.443 15.9838 104.644 15.2143 104.644 14.2376C104.644 14.208 104.644 14.1784 104.644 14.1192H103.253C103.253 14.1488 103.253 14.1784 103.253 14.2376C103.253 15.1847 102.484 15.9838 101.507 15.9838C100.56 15.9838 99.7607 15.2143 99.7607 14.2376C99.7607 14.208 99.7607 14.1784 99.7607 14.1192H98.1328C98.1328 14.1488 98.1328 14.1784 98.1328 14.2376C98.1328 15.1847 97.3633 15.9838 96.3866 15.9838C95.4394 15.9838 94.6403 15.2143 94.6403 14.2376C94.6403 14.208 94.6403 14.1784 94.6403 14.1192H92.5093V110.459H156.114Z" fill="#5CCB9D"/>
<path d="M152.03 36.1396H96.6528V36.6132H152.03V36.1396Z" fill="white"/>
<path d="M152.122 24.8626H96.7446V25.3362H152.122V24.8626Z" fill="white"/>
<path d="M152.119 85.5975H96.7417V86.0711H152.119V85.5975Z" fill="white"/>
<path d="M152.03 74.6158H96.6528V75.0894H152.03V74.6158Z" fill="white"/>
<path d="M97.3928 79.9436H96.6528V79.7068H98.4583V79.9436H97.7183V81.9267H97.4224V79.9436H97.3928Z" fill="white"/>
<path d="M99.5236 79.6475C100.234 79.6475 100.589 80.2099 100.589 80.8314C100.589 81.453 100.234 82.0153 99.5236 82.0153C98.8133 82.0153 98.4581 81.453 98.4581 80.8314C98.4285 80.2099 98.8133 79.6475 99.5236 79.6475ZM99.5236 81.7194C100.056 81.7194 100.293 81.2458 100.293 80.8018C100.293 80.3579 100.056 79.8843 99.5236 79.8843C98.9909 79.8843 98.7541 80.3579 98.7541 80.8018C98.7245 81.2754 98.9613 81.7194 99.5236 81.7194Z" fill="white"/>
<path d="M101.329 79.9441H100.589V79.7073H102.394V79.9441H101.654V81.9272H101.358V79.9441H101.329Z" fill="white"/>
<path d="M103.075 79.6772H103.401L104.289 81.9267H103.963L103.726 81.2459H102.779L102.543 81.9267H102.247L103.075 79.6772ZM102.868 81.0091H103.638L103.253 79.9732L102.868 81.0091Z" fill="white"/>
<path d="M104.584 79.7073H104.88V81.6904H106.064V81.9272H104.584V79.7073Z" fill="white"/>
<path d="M109.823 81.4828H110.267V81.9268H109.823V81.4828Z" fill="white"/>
<path d="M110.918 81.4828H111.362V81.9268H110.918V81.4828Z" fill="white"/>
<path d="M112.014 81.4828H112.458V81.9268H112.014V81.4828Z" fill="white"/>
<path d="M113.109 81.4828H113.553V81.9268H113.109V81.4828Z" fill="white"/>
<path d="M107.634 81.4828H108.078V81.9268H107.634V81.4828Z" fill="white"/>
<path d="M108.729 81.4828H109.172V81.9268H108.729V81.4828Z" fill="white"/>
<path d="M114.205 81.4828H114.649V81.9268H114.205V81.4828Z" fill="white"/>
<path d="M115.299 81.4828H115.743V81.9268H115.299V81.4828Z" fill="white"/>
<path d="M116.395 81.4828H116.838V81.9268H116.395V81.4828Z" fill="white"/>
<path d="M117.489 81.4828H117.933V81.9268H117.489V81.4828Z" fill="white"/>
<path d="M118.584 81.4828H119.028V81.9268H118.584V81.4828Z" fill="white"/>
<path d="M119.68 81.4828H120.124V81.9268H119.68V81.4828Z" fill="white"/>
<path d="M120.775 81.4828H121.219V81.9268H120.775V81.4828Z" fill="white"/>
<path d="M121.87 81.4828H122.314V81.9268H121.87V81.4828Z" fill="white"/>
<path d="M122.965 81.4828H123.409V81.9268H122.965V81.4828Z" fill="white"/>
<path d="M124.06 81.4828H124.504V81.9268H124.06V81.4828Z" fill="white"/>
<path d="M125.155 81.4828H125.599V81.9268H125.155V81.4828Z" fill="white"/>
<path d="M126.25 81.4828H126.694V81.9268H126.25V81.4828Z" fill="white"/>
<path d="M127.345 81.4828H127.789V81.9268H127.345V81.4828Z" fill="white"/>
<path d="M128.44 81.4828H128.884V81.9268H128.44V81.4828Z" fill="white"/>
<path d="M129.536 81.4828H129.98V81.9268H129.536V81.4828Z" fill="white"/>
<path d="M152 63.6358H141.463V65.0269H152V63.6358Z" fill="white"/>
<path d="M151.911 69.4076H141.375V70.7987H151.911V69.4076Z" fill="white"/>
<path d="M129.683 69.4076H96.6821V70.7987H129.683V69.4076Z" fill="white"/>
<path d="M152.001 57.8641H141.464V59.2552H152.001V57.8641Z" fill="white"/>
<path d="M152.001 52.0928H141.464V53.4839H152.001V52.0928Z" fill="white"/>
<path d="M152.001 46.2913H141.464V47.6824H152.001V46.2913Z" fill="white"/>
<path d="M152 40.5198H141.463V41.9109H152V40.5198Z" fill="white"/>
<path d="M113.05 63.6353H96.771V65.0263H113.05V63.6353Z" fill="white"/>
<path d="M136.284 57.8644H96.771V59.2555H136.284V57.8644Z" fill="white"/>
<path d="M129.447 52.0926H96.771V53.4837H129.447V52.0926Z" fill="white"/>
<path d="M133.294 46.2916H96.771V47.6827H133.294V46.2916Z" fill="white"/>
<path d="M124.948 40.5207H96.7715V41.9118H124.948V40.5207Z" fill="white"/>
<path d="M101.566 97.4663H101.241V103.06H101.566V97.4663Z" fill="white"/>
<path d="M102.188 97.4657H101.862V103.06H102.188V97.4657Z" fill="white"/>
<path d="M103.135 97.4657H102.809V103.06H103.135V97.4657Z" fill="white"/>
<path d="M104.378 97.4657H103.757V103.06H104.378V97.4657Z" fill="white"/>
<path d="M105.976 97.4657H104.704V103.06H105.976V97.4657Z" fill="white"/>
<path d="M106.627 97.4657H106.302V103.06H106.627V97.4657Z" fill="white"/>
<path d="M108.196 97.4657H107.249V103.06H108.196V97.4657Z" fill="white"/>
<path d="M108.848 97.4657H108.522V103.06H108.848V97.4657Z" fill="white"/>
<path d="M109.765 97.4657H109.143V103.06H109.765V97.4657Z" fill="white"/>
<path d="M111.067 97.4657H110.741V103.06H111.067V97.4657Z" fill="white"/>
<path d="M112.636 97.4657H112.31V103.06H112.636V97.4657Z" fill="white"/>
<path d="M113.287 97.4657H112.961V103.06H113.287V97.4657Z" fill="white"/>
<path d="M114.234 97.4657H113.908V103.06H114.234V97.4657Z" fill="white"/>
<path d="M115.506 97.4657H115.181V103.06H115.506V97.4657Z" fill="white"/>
<path d="M116.128 97.4657H115.803V103.06H116.128V97.4657Z" fill="white"/>
<path d="M116.779 97.4657H116.454V103.06H116.779V97.4657Z" fill="white"/>
<path d="M138.859 97.4657H137.912V103.06H138.859V97.4657Z" fill="white"/>
<path d="M139.51 97.4657H139.185V103.06H139.51V97.4657Z" fill="white"/>
<path d="M140.457 97.4657H139.835V103.06H140.457V97.4657Z" fill="white"/>
<path d="M141.73 97.4657H141.404V103.06H141.73V97.4657Z" fill="white"/>
<path d="M143.329 97.4657H143.003V103.06H143.329V97.4657Z" fill="white"/>
<path d="M143.95 97.4657H143.624V103.06H143.95V97.4657Z" fill="white"/>
<path d="M144.897 97.4657H144.571V103.06H144.897V97.4657Z" fill="white"/>
<path d="M146.17 97.4657H145.844V103.06H146.17V97.4657Z" fill="white"/>
<path d="M146.791 97.4657H146.465V103.06H146.791V97.4657Z" fill="white"/>
<path d="M147.442 97.4657H147.117V103.06H147.442V97.4657Z" fill="white"/>
<path d="M117.401 97.4657H117.075V103.06H117.401V97.4657Z" fill="white"/>
<path d="M118.348 97.4657H118.022V103.06H118.348V97.4657Z" fill="white"/>
<path d="M120.242 97.4657H119.295V103.06H120.242V97.4657Z" fill="white"/>
<path d="M120.893 97.4657H120.568V103.06H120.893V97.4657Z" fill="white"/>
<path d="M122.462 97.4657H121.515V103.06H122.462V97.4657Z" fill="white"/>
<path d="M123.439 97.4657H123.113V103.06H123.439V97.4657Z" fill="white"/>
<path d="M124.356 97.4657H123.735V103.06H124.356V97.4657Z" fill="white"/>
<path d="M125.629 97.4657H125.007V103.06H125.629V97.4657Z" fill="white"/>
<path d="M126.576 97.4657H125.955V103.06H126.576V97.4657Z" fill="white"/>
<path d="M127.523 97.4657H126.901V103.06H127.523V97.4657Z" fill="white"/>
<path d="M128.5 97.4657H128.174V103.06H128.5V97.4657Z" fill="white"/>
<path d="M129.447 97.4657H129.122V103.06H129.447V97.4657Z" fill="white"/>
<path d="M130.72 97.4657H130.394V103.06H130.72V97.4657Z" fill="white"/>
<path d="M131.341 97.4657H131.016V103.06H131.341V97.4657Z" fill="white"/>
<path d="M132.673 97.4657H132.052V103.06H132.673V97.4657Z" fill="white"/>
<path d="M133.649 97.4657H133.028V103.06H133.649V97.4657Z" fill="white"/>
<path d="M134.597 97.4657H134.271V103.06H134.597V97.4657Z" fill="white"/>
<path d="M135.544 97.4657H135.218V103.06H135.544V97.4657Z" fill="white"/>
<path d="M136.817 97.4657H136.491V103.06H136.817V97.4657Z" fill="white"/>
<path d="M137.468 97.4657H137.143V103.06H137.468V97.4657Z" fill="white"/>
<path d="M96.7412 33.2221V28.2903H97.4354L99.0206 30.7769C99.3832 31.3571 99.6733 31.8751 99.9013 32.3828L99.9116 32.3725C99.8495 31.7094 99.8391 31.1188 99.8391 30.3417V28.2903H100.44V33.2221H99.7977L98.2332 30.7147C97.8913 30.1656 97.5597 29.6061 97.3111 29.0673L97.2903 29.0777C97.3318 29.6994 97.3421 30.2899 97.3421 31.1084V33.2117H96.7412V33.2221Z" fill="white"/>
<path d="M105.766 30.7035C105.766 32.4027 104.73 33.3041 103.476 33.3041C102.171 33.3041 101.259 32.2991 101.259 30.8071C101.259 29.2323 102.233 28.2065 103.549 28.2065C104.895 28.2065 105.766 29.2426 105.766 30.7035ZM101.943 30.776C101.943 31.8329 102.512 32.7757 103.517 32.7757C104.522 32.7757 105.092 31.8432 105.092 30.7242C105.092 29.7503 104.585 28.7246 103.528 28.7246C102.471 28.7246 101.943 29.6985 101.943 30.776Z" fill="white"/>
<path d="M108.149 28.3518C108.47 28.2897 108.936 28.2482 109.372 28.2482C110.055 28.2482 110.49 28.3726 110.801 28.6523C111.05 28.8699 111.185 29.2118 111.185 29.5848C111.185 30.2375 110.77 30.6623 110.252 30.8384V30.8592C110.636 30.9939 110.863 31.3461 110.977 31.8538C111.143 32.5376 111.257 33.0142 111.361 33.2111H110.698C110.615 33.0764 110.511 32.6516 110.366 32.03C110.221 31.3461 109.952 31.0975 109.382 31.0768H108.781V33.2111H108.149V28.3518ZM108.791 30.6001H109.444C110.128 30.6001 110.553 30.2272 110.553 29.6677C110.553 29.0357 110.097 28.7559 109.423 28.7456C109.112 28.7456 108.895 28.7766 108.791 28.8077V30.6001Z" fill="white"/>
<path d="M114.634 30.9004H112.718V32.6824H114.852V33.2212H112.075V28.2894H114.738V28.8282H112.707V30.3823H114.624V30.9004H114.634Z" fill="white"/>
<path d="M119.131 33.0554C118.893 33.1694 118.427 33.2937 117.826 33.2937C116.438 33.2937 115.391 32.4131 115.391 30.7968C115.391 29.253 116.438 28.2065 117.961 28.2065C118.572 28.2065 118.966 28.3412 119.131 28.4241L118.976 28.9422C118.738 28.8282 118.396 28.7349 117.981 28.7349C116.821 28.7349 116.054 29.4706 116.054 30.7657C116.054 31.9675 116.748 32.7446 117.95 32.7446C118.334 32.7446 118.738 32.6617 118.986 32.5374L119.131 33.0554Z" fill="white"/>
<path d="M122.488 30.9004H120.572V32.6824H122.706V33.2212H119.929V28.2894H122.592V28.8282H120.572V30.3823H122.488V30.9004Z" fill="white"/>
<path d="M124.167 28.2894V33.2212H123.535V28.2894H124.167Z" fill="white"/>
<path d="M125.286 28.3415C125.596 28.2897 125.99 28.2482 126.508 28.2482C127.14 28.2482 127.596 28.3933 127.886 28.6627C128.156 28.901 128.321 29.2532 128.321 29.6988C128.321 30.1443 128.187 30.4965 127.938 30.7556C127.606 31.1182 127.057 31.2943 126.436 31.2943C126.249 31.2943 126.073 31.284 125.928 31.2529V33.2318H125.296V28.3415H125.286ZM125.918 30.7245C126.052 30.7659 126.228 30.7763 126.446 30.7763C127.213 30.7763 127.679 30.4033 127.679 29.7195C127.679 29.0667 127.223 28.7559 126.519 28.7559C126.239 28.7559 126.032 28.7766 125.918 28.8077V30.7245Z" fill="white"/>
<path d="M130.114 28.8282H128.611V28.2894H132.258V28.8282H130.756V33.2212H130.114V28.8282Z" fill="white"/>
<path d="M139.658 79.7526C139.806 79.7184 140.012 79.707 140.217 79.707C140.524 79.707 140.73 79.764 140.866 79.8894C140.98 79.992 141.037 80.1401 141.037 80.3111C141.037 80.6074 140.855 80.8012 140.616 80.881V80.8924C140.787 80.9493 140.889 81.1089 140.946 81.3482C141.014 81.656 141.071 81.8725 141.117 81.9637H140.821C140.787 81.8953 140.73 81.713 140.673 81.428C140.604 81.1203 140.49 81.0063 140.228 80.9949H139.943V81.9637H139.658V79.7526ZM139.943 80.7784H140.239C140.547 80.7784 140.741 80.6074 140.741 80.3567C140.752 80.0603 140.536 79.935 140.228 79.935C140.091 79.935 139.989 79.9464 139.943 79.9578V80.7784Z" fill="white"/>
<path d="M141.471 80.8799C141.471 80.6748 141.459 80.5038 141.459 80.3557H141.722L141.733 80.6292H141.744C141.858 80.4354 142.052 80.3215 142.314 80.3215C142.702 80.3215 142.998 80.652 142.998 81.1421C142.998 81.7233 142.645 82.0083 142.269 82.0083C142.052 82.0083 141.87 81.9171 141.779 81.7575H141.767V82.6351H141.482V80.8799H141.471ZM141.756 81.3016C141.756 81.3472 141.767 81.3814 141.767 81.4156C141.824 81.6208 141.995 81.7575 142.2 81.7575C142.508 81.7575 142.69 81.5068 142.69 81.1421C142.69 80.823 142.519 80.5494 142.212 80.5494C142.018 80.5494 141.824 80.6976 141.767 80.9141C141.756 80.9483 141.744 80.9939 141.744 81.0281V81.3016H141.756Z" fill="white"/>
<path d="M144.696 80.8579C144.696 81.5873 144.423 81.9976 143.944 81.9976C143.522 81.9976 143.237 81.5987 143.226 80.8921C143.226 80.1626 143.534 79.7751 143.978 79.7751C144.446 79.7637 144.696 80.174 144.696 80.8579ZM143.534 80.8921C143.534 81.4505 143.705 81.7697 143.967 81.7697C144.263 81.7697 144.411 81.4163 144.411 80.8693C144.411 80.3336 144.275 79.9917 143.978 79.9917C143.716 79.9917 143.534 80.2994 143.534 80.8921Z" fill="white"/>
<path d="M146.405 80.8579C146.405 81.5873 146.132 81.9976 145.653 81.9976C145.231 81.9976 144.946 81.5987 144.935 80.8921C144.935 80.1626 145.243 79.7751 145.687 79.7751C146.143 79.7637 146.405 80.174 146.405 80.8579ZM145.231 80.8921C145.231 81.4505 145.402 81.7697 145.664 81.7697C145.961 81.7697 146.109 81.4163 146.109 80.8693C146.109 80.3336 145.972 79.9917 145.676 79.9917C145.414 79.9917 145.231 80.2994 145.231 80.8921Z" fill="white"/>
<path d="M146.577 82.3736C146.645 82.1799 146.736 81.8266 146.77 81.5758L147.101 81.5416C147.021 81.8266 146.873 82.1913 146.782 82.3508L146.577 82.3736Z" fill="white"/>
<path d="M148.799 80.8579C148.799 81.5873 148.526 81.9976 148.047 81.9976C147.625 81.9976 147.34 81.5987 147.329 80.8921C147.329 80.1626 147.637 79.7751 148.081 79.7751C148.537 79.7637 148.799 80.174 148.799 80.8579ZM147.625 80.8921C147.625 81.4505 147.796 81.7697 148.059 81.7697C148.355 81.7697 148.503 81.4163 148.503 80.8693C148.503 80.3336 148.366 79.9917 148.07 79.9917C147.808 79.9917 147.625 80.2994 147.625 80.8921Z" fill="white"/>
<path d="M150.498 80.8579C150.498 81.5873 150.224 81.9976 149.745 81.9976C149.324 81.9976 149.039 81.5987 149.027 80.8921C149.027 80.1626 149.335 79.7751 149.78 79.7751C150.247 79.7637 150.498 80.174 150.498 80.8579ZM149.335 80.8921C149.335 81.4505 149.506 81.7697 149.768 81.7697C150.064 81.7697 150.213 81.4163 150.213 80.8693C150.213 80.3336 150.076 79.9917 149.78 79.9917C149.517 79.9917 149.335 80.2994 149.335 80.8921Z" fill="white"/>
<path d="M152.207 80.8579C152.207 81.5873 151.933 81.9976 151.454 81.9976C151.033 81.9976 150.748 81.5987 150.736 80.8921C150.736 80.1626 151.044 79.7751 151.489 79.7751C151.944 79.7637 152.207 80.174 152.207 80.8579ZM151.033 80.8921C151.033 81.4505 151.204 81.7697 151.466 81.7697C151.762 81.7697 151.91 81.4163 151.91 80.8693C151.91 80.3336 151.773 79.9917 151.477 79.9917C151.215 79.9917 151.033 80.2994 151.033 80.8921Z" fill="white"/>
</svg>
